<svg width="1040" height="1039" xmlns="http://www.w3.org/2000/svg" xmlns:xlink="http://www.w3.org/1999/xlink" xml:space="preserve" overflow="hidden"><defs><filter id="fx0" x="-10%" y="-10%" width="120%" height="120%" filterUnits="userSpaceOnUse" primitiveUnits="userSpaceOnUse"><feComponentTransfer color-interpolation-filters="sRGB"><feFuncR type="discrete" tableValues="0 0"/><feFuncG type="discrete" tableValues="0 0"/><feFuncB type="discrete" tableValues="0 0"/><feFuncA type="linear" slope="0.4" intercept="0"/></feComponentTransfer><feGaussianBlur stdDeviation="6.11111 6.11111"/></filter><clipPath id="clip1"><rect x="1680" y="718" width="1040" height="1039"/></clipPath><radialGradient cx="2881746" cy="2878974" r="4073445" fx="2881746" fy="2878974" gradientUnits="userSpaceOnUse" spreadMethod="pad" id="fill2" gradientTransform="matrix(0.000360892 0 0 0.000360892 1680 718)"><stop offset="0" stop-color="#FF89A5"/><stop offset="0.5" stop-color="#BFCBF0"/><stop offset="1" stop-color="#002060"/></radialGradient></defs><g clip-path="url(#clip1)" transform="translate(-1680 -718)"><rect x="1680" y="718" width="1040" height="1039" fill="url(#fill2)"/><g filter="url(#fx0)" transform="translate(1774 949)"><g><path d="M273.23 550.182C250.909 553.329 228.016 549.181 209.701 539.884 191.387 530.586 172.929 512.849 163.343 494.398 153.756 475.946 146.602 448.196 152.182 429.172 157.762 410.148 171.642 391.553 196.824 380.253 222.006 368.953 270.082 359.942 303.277 361.372 336.472 362.803 381.257 370.384 395.994 388.836 410.732 407.287 406.726 446.337 391.702 472.084 376.678 497.83 362.799 508.415 343.626 521.002 324.453 533.59 295.55 547.036 273.23 550.182Z" stroke="#000000" stroke-width="5" stroke-miterlimit="8" fill="#FF89A5" fill-rule="evenodd"/><path d="M142.967 438.491C134.947 435.911 106.017 412.979 96.5646 399.794 87.1121 386.608 87.6851 373.279 86.2528 359.376 84.8205 345.474 89.117 333.148 87.9713 316.379 86.8255 299.61 77.946 275.962 79.3783 258.763 80.8106 241.564 86.5394 227.661 96.5646 213.185 106.59 198.709 128.073 187.674 139.53 171.908 150.988 156.142 151.99 132.78 165.31 118.591 178.629 104.403 205.411 97.9528 219.447 86.7736 233.482 75.5944 236.49 60.5449 249.522 51.5155 262.555 42.4861 282.892 35.7499 297.644 32.5969 312.395 29.4439 322.421 34.3166 338.032 32.5969 353.643 30.8772 373.98 21.4177 391.309 22.2775 408.639 23.1374 428.403 37.0399 442.009 37.7564 455.614 38.4729 459.625 27.8672 472.944 26.5772 486.263 25.2872 507.03 24.284 521.925 30.017 536.82 35.7499 548.42 56.532 562.313 60.975 576.205 65.418 593.105 56.1023 605.279 56.6754 617.452 57.2485 625.043 57.5352 635.355 64.4148 645.666 71.2944 652.111 88.78 667.149 97.9528 682.187 107.126 710.258 104.115 725.583 119.451 740.907 134.787 747.925 169.615 759.096 189.967 770.267 210.319 789.458 219.779 792.609 241.564 795.76 263.349 786.164 295.597 778.001 320.679 769.837 345.761 762.963 378.582 743.628 392.054 724.294 405.526 684.478 395.494 661.993 401.514 639.508 407.533 624.756 415.846 608.716 428.172 592.675 440.498 585.228 466.153 565.75 475.469 546.272 484.785 509.035 484.498 491.849 484.068 474.663 483.638 473.947 468.159 462.632 472.889 451.318 477.619 444.873 498.544 423.963 512.446 403.053 526.349 353.929 545.841 337.173 556.304 320.416 566.766 332.446 575.223 323.424 575.223 314.401 575.223 280.028 563.9 283.036 556.304 286.043 548.707 322.421 542.545 341.469 529.645 360.517 516.746 386.01 498.974 397.324 478.909 408.639 458.844 412.935 427.598 409.355 409.253 405.774 390.907 395.606 377.865 375.842 368.836 356.077 359.806 316.549 355.507 290.769 355.077 264.99 354.647 239.927 361.956 221.165 366.256 202.403 370.555 190.946 372.705 178.2 380.875 165.453 389.044 150.415 406.1 144.686 415.273 138.957 424.445 150.988 441.071 142.967 438.491Z" stroke="#172C51" stroke-width="5" stroke-miterlimit="8" fill="#FF89A5" fill-rule="evenodd"/><path d="M224.723 81.7227C241.751 100.318 248.086 117.115 261.672 138.251 273.538 157.498 288.679 193.154 295.184 211.051 298.334 229.396 297.683 246.02 293.465 255.588 286.966 264.496 287.698 263.151 257.376 266.723" stroke="#FFFFFF" stroke-width="10" stroke-miterlimit="8" fill="none" fill-rule="evenodd"/><path d="M281.723 264.723C284.422 273.808 290.905 290.625 300.58 297.92 310.235 305.39 332.442 321.228 343.437 322.605 354.629 324.157 367.033 312.492 371.722 306.433 377.6 300.686 377.399 298.371 377.723 287.706" stroke="#FFFFFF" stroke-width="10" stroke-miterlimit="8" fill="none" fill-rule="evenodd"/><path d="M346.723 191.204C351.006 164.672 355.845 137.623 366.493 122.476 378.688 103.664 396.879 98.7165 408.611 95.8436 420.12 93.7879 426.95 96.178 436.977 107.012 445.719 118.463 459.172 148.783 458.466 171.445 459.724 194.24 451.956 214.177 448.151 230.723" stroke="#FFFFFF" stroke-width="10" stroke-miterlimit="8" fill="none" fill-rule="evenodd"/><path d="M337.723 36.7226C331.183 47.0647 327.018 55.7312 324.358 64.2226 323.496 73.3546 322.053 80.9687 327.922 91.7226" stroke="#FFFFFF" stroke-width="10" stroke-miterlimit="8" fill="none" fill-rule="evenodd"/><path d="M445.723 124.723C456.54 114.159 468.566 101.416 471.692 93.5227 474.549 81.6221 476.791 68.5394 472.557 61.4558 469.317 53.661 463.322 48.8736 456.976 46.7226" stroke="#FFFFFF" stroke-width="10" stroke-miterlimit="8" fill="none" fill-rule="evenodd"/><path d="M559.723 66.7229C556.592 73.1699 553.736 79.8548 552.247 89.7523 551.057 96.7943 551.366 112.511 553.908 124.723" stroke="#FFFFFF" stroke-width="10" stroke-miterlimit="8" fill="none" fill-rule="evenodd"/><path d="M749.723 191.055C736.681 191.015 726.691 189.885 711.2 191.055 702.343 191.939 689.232 199.838 676.102 204.9 664.103 213.588 650.473 225.722 646.14 237.783 642.167 252.678 637.277 262.138 636.723 276.723" stroke="#FFFFFF" stroke-width="10" stroke-miterlimit="8" fill="none" fill-rule="evenodd"/><path d="M773.723 319.318C765.892 321.22 755.027 321.601 744.846 319.318 732.918 313.779 721.153 311.26 711.723 304.723" stroke="#FFFFFF" stroke-width="10" stroke-miterlimit="8" fill="none" fill-rule="evenodd"/><path d="M409.723 455.779C425.208 457.318 445.146 463.452 459.458 461.756 473.623 458.566 497.81 448.543 506.62 437.85 519.159 428.301 516.676 413.795 514.338 397.723" stroke="#FFFFFF" stroke-width="10" stroke-miterlimit="8" fill="none" fill-rule="evenodd"/><path d="M511.723 429.723C544.572 426.955 576.997 417.202 594.274 408.041 613.987 395.189 625.639 379.233 630.391 369.882 633.666 358.613 616.689 348.313 611.473 340.395 606.17 334.035 598.574 331.723 598.574 331.723" stroke="#FFFFFF" stroke-width="10" stroke-miterlimit="8" fill="none" fill-rule="evenodd"/><path d="M102.723 253.832C108.026 244.592 114.926 236.015 119.978 234.07 125.525 231.166 129.903 229.204 138.958 233.211 149.449 232.962 163.686 241.448 171.742 258.988 180.361 273.649 184.682 327.724 190.723 323.432" stroke="#FFFFFF" stroke-width="10" stroke-miterlimit="8" fill="none" fill-rule="evenodd"/><path d="M135.723 231.723C140.361 219.959 139.499 206.112 145.242 194.787 153.009 183.874 171.882 171.87 180.723 164.723" stroke="#FFFFFF" stroke-width="10" stroke-miterlimit="8" fill="none" fill-rule="evenodd"/><path d="M501.57 162.723C518.739 168.258 533.687 173.049 546.222 187.639 555.453 195.812 567.221 220.807 567.69 240.909 566.018 261.336 554.25 284.982 541.929 303.63 524.626 324.432 498.083 346.284 482.678 347.449 464.336 349.472 435.195 331.27 423.427 319.955 409.789 308.2 413.461 291.829 419.133 275.277" stroke="#FFFFFF" stroke-width="10" stroke-miterlimit="8" fill="none" fill-rule="evenodd"/><path d="M567.723 233.723C585.941 232.107 597.606 232.101 604.989 219.881 613.396 213.684 617.753 184.215 614.522 169.707 613.568 153.493 600.731 133.701 598.922 124.723" stroke="#FFFFFF" stroke-width="10" stroke-miterlimit="8" fill="none" fill-rule="evenodd"/><path d="M42.092 285.386 58.6036 256.309 64.0639 250.222 69.2278 245.105 74.5576 240.399 79.9847 236.144 85.4499 232.382 90.9093 229.157 96.3463 226.516 101.793 224.525 107.364 223.31 113.253 223.168 119.408 224.758 123.434 227.617 126.07 230.955 127.813 234.257 129.092 237.592 130.107 241.059 130.972 244.799 132.293 252.61 133.315 261.289 134.114 270.517 135.31 289.351 135.835 298.473 135.831 298.395 136.384 306.89 136.369 306.689 137.008 314.267 136.982 313.996 137.351 317.339 137.317 317.06 137.729 320.053 137.666 319.65 138.128 322.253 138.002 321.648 138.521 323.82 138.241 322.856 138.824 324.557 138.093 322.903 138.747 324.092 136.444 321.235 137.176 321.873 130.869 319.306 131.686 319.352 125.409 321.008 126.318 320.422 123.812 322.681 124.821 321.423 123.701 323.141 124.799 321.033 124.302 322.138 125.471 319.076 125.26 319.684 126.496 315.737 126.386 316.112 127.684 311.351 127.619 311.601 128.976 306.094 128.934 306.27 130.346 300.086 130.318 300.214 131.779 293.423 131.76 293.517 133.267 286.189 133.253 286.258 134.803 278.461 134.793 278.512 136.381 270.317 136.372 270.363 139.644 253.054 143.014 235.006 146.465 216.682 149.958 198.67 153.46 181.53 155.215 173.415 156.961 165.725 158.7 158.504 160.435 151.808 162.17 145.686 163.918 140.169 165.716 135.26 167.659 130.888 170.045 126.819 173.952 122.571 181.64 119.631 189.607 123.015 193.364 128.224 195.334 132.999 196.827 138.155 198.149 144.066 199.386 150.818 200.567 158.402 201.709 166.773 202.818 175.865 203.902 185.609 204.965 195.926 206.01 206.74 207.042 217.974 209.074 241.316 211.092 265.37 213.116 289.417 213.112 289.379 215.168 312.784 215.163 312.729 216.211 323.979 216.206 323.926 217.27 334.762 217.263 334.694 218.346 345.031 218.337 344.943 219.443 354.698 219.429 354.583 220.561 363.671 220.541 363.522 221.701 371.859 221.671 371.659 222.862 379.16 222.815 378.885 224.04 385.467 223.959 385.071 225.221 390.648 225.064 390.041 226.366 394.53 226.012 393.509 227.357 396.826 226.329 394.896 227.72 396.956 224.223 393.712 225.667 394.537 218.496 393.342 219.998 393.056 215.148 395.384 216.704 394.055 214.91 396.033 216.516 393.732 215.792 394.932 217.443 391.727 217.093 392.478 218.785 388.439 218.59 388.94 220.319 384.136 220.199 384.489 221.961 378.989 221.882 379.246 223.673 373.12 223.618 373.313 225.434 366.629 225.395 366.777 227.23 359.605 227.202 359.72 229.054 352.128 229.024 352.252 232.761 336.088 232.737 336.191 236.489 319.181 236.479 319.227 240.213 301.925 243.903 284.853 247.518 268.558 249.295 260.841 251.042 253.522 252.761 246.651 254.452 240.284 256.12 234.471 257.777 229.244 259.457 224.606 261.254 220.478 263.481 216.579 267.244 212.431 274.533 209.643 282 212.459 285.656 216.875 287.469 220.703 288.688 224.461 289.662 228.476 290.504 232.863 291.259 237.645 291.951 242.805 292.597 248.33 293.776 260.131 294.879 272.716 295.964 285.596 295.96 285.551 297.088 298.279 297.075 298.145 298.303 310.243 298.284 310.07 298.954 315.728 298.933 315.56 299.648 320.875 299.616 320.652 300.385 325.562 300.333 325.26 301.163 329.704 301.076 329.286 301.973 333.201 301.816 332.601 302.788 335.926 302.478 335.022 303.531 337.695 302.834 336.257 303.975 338.215 302.16 335.913 303.397 337.096 298.759 334.516 300.099 334.862 293.728 335.223 295.177 334.668 291.626 336.931 293.192 335.415 291.662 337.283 293.345 334.663 292.695 335.832 294.487 332.062 294.193 332.742 296.087 327.904 295.929 328.337 297.919 322.511 297.823 322.805 299.904 316.074 299.842 316.283 302.006 308.726 301.964 308.879 304.206 300.58 304.176 300.693 306.49 291.732 306.468 291.817 308.847 282.274 308.832 282.337 311.269 272.295 311.259 272.34 313.749 261.881 316.279 251.115 321.463 228.86 326.773 206.176 332.151 183.748 334.857 172.805 337.562 162.17 340.264 151.911 342.958 142.104 345.641 132.824 348.312 124.142 350.973 116.123 353.632 108.822 356.311 102.28 359.065 96.5007 362.031 91.4265 365.596 86.8952 370.801 82.8771 378.597 81.2952 385.733 84.3941 390.075 89.0337 393.033 94.0011 395.478 99.533 397.702 105.801 399.811 112.856 401.85 120.684 403.84 129.243 405.794 138.473 407.717 148.305 409.615 158.667 411.49 169.481 413.344 180.669 415.182 192.16 418.805 215.669 422.374 239.394 425.899 262.671 425.893 262.632 427.643 273.91 427.636 273.866 429.38 284.79 429.37 284.728 431.107 295.215 431.093 295.133 432.826 305.099 432.807 304.991 434.536 314.354 434.508 314.212 436.234 322.889 436.195 322.7 437.919 330.607 437.86 330.352 439.584 337.406 439.49 337.051 441.214 343.169 441.054 342.652 442.779 347.752 442.471 346.952 444.199 350.949 443.503 349.612 445.234 352.425 443.688 350.475 445.422 352.196 442.485 350.143 444.221 350.957 439.529 349.965 441.265 349.927 436.937 350.965 438.673 350.129 436.159 351.827 437.893 350.246 436.619 351.637 438.351 349.368 437.676 350.366 439.405 347.461 439.018 348.174 440.744 344.688 440.504 345.207 442.226 341.194 442.068 341.581 443.785 337.096 443.677 337.391 445.387 332.487 445.311 332.715 447.014 327.448 446.938 327.694 450.321 316.285 450.261 316.496 453.606 304.285 453.577 304.394 456.878 291.813 460.128 279.295 463.35 267.172 466.529 255.91 468.129 250.654 469.725 245.76 471.34 241.232 473 237.08 474.76 233.287 476.757 229.774 479.344 226.369 483.121 223.276 488.152 221.507 493.47 221.755 497.878 223.696 501.011 226.283 503.282 229.011 505.169 231.96 507.966 237.748 510.459 244.414 512.747 251.662 514.92 259.325 517.019 267.155 519.091 274.971 519.067 274.881 521.137 282.42 521.072 282.194 523.165 289.198 523.031 288.779 525.165 294.966 524.88 294.23 527.075 299.314 526.629 298.404 527.754 300.445 527.195 299.543 528.342 301.201 527.344 299.968 528.515 301.21 526.653 299.646 527.85 300.434 524.573 299.005 525.799 299.306 521.463 299.166 522.72 298.943 518.737 300.542 520.008 299.695 517.782 301.689 519.05 300.176 518.072 301.554 519.338 299.425 518.859 300.329 520.124 297.635 519.86 298.246 521.126 295.036 520.968 295.464 522.236 291.789 522.134 292.098 523.405 288.008 523.338 288.234 524.613 283.779 524.55 284.007 527.118 274.203 527.074 274.376 529.674 263.714 529.659 263.774 532.305 252.64 535.019 241.386 537.822 230.373 540.724 220.03 542.255 215.121 543.825 210.519 545.467 206.209 547.216 202.199 549.136 198.479 551.364 195.004 554.186 191.72 558.15 188.754 563.703 186.991 569.809 187.769 574.661 190.607 578.166 194.299 580.873 198.629 583.152 203.575 585.257 209.202 587.309 215.595 589.351 222.754 591.403 230.641 593.472 239.2 595.562 248.368 597.673 258.073 599.805 268.243 601.956 278.803 604.127 289.679 608.51 312.039 612.946 334.748 612.938 334.709 617.408 357.138 617.396 357.077 619.638 367.99 619.626 367.93 621.869 378.537 621.852 378.46 624.095 388.681 624.073 388.583 626.312 398.339 626.282 398.214 628.515 407.425 628.475 407.266 630.699 415.854 630.644 415.649 632.857 423.534 632.778 423.265 634.977 430.368 634.858 430.007 637.042 436.248 636.851 435.744 639.016 441.044 638.684 440.312 640.828 444.592 640.176 443.47 642.296 446.65 640.814 444.884 642.909 446.885 639.21 444.597 641.276 445.34 634.989 445.082 637.04 444.529 632.883 446.743 634.933 444.96 633.213 446.874 635.263 443.938 634.52 445.175 636.569 441.161 636.2 441.966 638.247 436.952 638.04 437.502 640.085 431.563 639.958 431.955 642 425.168 641.918 425.459 643.957 417.9 643.9 418.121 645.936 409.867 645.896 410.037 647.928 401.165 647.898 401.298 649.927 391.883 649.905 391.987 651.928 382.106 651.912 382.188 653.931 371.917 653.918 371.98 655.932 361.396 655.92 361.459 659.929 339.657 659.921 339.697 663.904 317.558 667.863 295.656 671.796 274.606 673.758 264.558 675.714 254.949 677.667 245.839 679.62 237.295 681.578 229.38 683.55 222.147 685.555 215.637 687.631 209.857 689.879 204.753 692.463 200.331 695.54 196.626 699.365 193.57 704.196 191.547 709.536 191.216 714.383 192.533 718.276 194.802 721.386 197.512 724.004 200.492 726.329 203.71 728.535 207.255 732.462 214.717 736.232 223.088 739.861 231.995 746.745 250.093 750.053 258.747 749.979 258.56 753.21 266.55 753.048 266.17 756.188 273.134 755.958 272.655 757.491 275.643 757.234 275.172 758.742 277.772 758.33 277.12 759.812 279.29 759.112 278.376 760.565 280.072 759.284 278.813 760.708 279.991 758.264 278.48 759.658 279.097 755.614 278.201 758.698 278.261 755.683 278.643 759.356 277.622 757.675 278.248 761.839 276.276 760.848 276.812 765.408 274.019 764.773 274.441 769.63 270.956 769.193 271.288 774.252 267.242 773.931 267.509 779.095 263.032 778.848 263.253 784.021 258.475 783.332 259.173 813.409 225.668 829.036 239.696 798.632 273.566 792.977 278.791 787.53 283.513 782.093 287.86 776.703 291.727 771.337 295.014 765.849 297.613 759.829 299.287 753.096 299.157 748.443 297.099 745.206 294.422 742.791 291.604 740.768 288.639 738.931 285.472 737.154 282.009 733.819 274.614 730.473 266.338 727.117 257.559 720.277 239.576 720.367 239.805 716.856 231.187 717.006 231.538 713.446 223.634 713.728 224.212 710.128 217.37 710.504 218.027 708.691 215.112 709.096 215.716 707.276 213.198 707.898 213.977 706.072 211.898 707.061 212.884 705.23 211.288 706.842 212.444 705.007 211.375 707.54 212.435 705.701 211.936 709.104 212.283 707.263 212.397 710.67 211.602 708.829 212.373 711.329 210.89 709.488 212.362 711.01 210.868 709.17 213.083 710.158 211.672 708.313 214.831 708.857 213.764 706.998 217.985 707.27 217.304 705.399 222.51 705.553 222.049 703.67 228.164 703.766 227.836 701.871 234.784 701.934 234.543 700.028 242.247 700.071 242.065 698.155 250.449 698.186 250.31 696.259 259.298 696.281 259.191 694.345 268.706 694.361 268.624 692.415 278.589 692.431 278.505 688.512 299.482 688.523 299.422 684.572 321.276 680.586 343.434 676.568 365.288 674.543 375.935 672.51 386.279 670.467 396.253 668.413 405.787 666.346 414.811 664.262 423.261 662.153 431.075 660.008 438.204 657.8 444.616 655.475 450.313 652.896 455.365 649.69 459.958 644.838 464.177 637.269 466.216 630.008 463.604 625.468 459.265 622.343 454.579 619.728 449.358 617.309 443.437 614.973 436.762 612.676 429.344 610.396 421.222 608.125 412.452 605.858 403.098 603.594 393.23 601.332 382.921 599.074 372.246 596.819 361.273 592.339 338.794 587.902 316.078 583.522 293.736 583.529 293.771 581.367 282.933 581.375 282.975 579.233 272.465 579.245 272.523 577.128 262.421 577.144 262.498 575.052 252.882 575.075 252.984 573.012 243.934 573.044 244.068 571.012 235.663 571.056 235.84 569.058 228.16 569.123 228.397 567.161 221.521 567.261 221.849 565.338 215.856 565.501 216.327 563.619 211.297 563.918 212.012 562.08 208.024 562.712 209.194 560.919 206.327 562.209 207.992 560.458 206.148 562.771 207.981 561.055 206.977 565.028 208.33 563.345 208.115 567.85 207.707 566.198 208.231 569.312 206.63 567.69 207.844 569.361 206.282 567.769 208.135 568.646 206.956 567.082 209.397 567.572 208.547 566.034 211.527 566.328 210.909 564.815 214.377 565.003 213.918 563.515 217.824 563.64 217.476 562.174 221.771 562.262 221.504 560.818 226.136 560.903 225.848 558.076 235.924 558.141 235.678 555.386 246.502 555.418 246.373 552.724 257.545 552.732 257.511 550.083 268.659 547.455 279.437 544.835 289.443 543.495 294.125 542.141 298.483 540.746 302.528 539.274 306.26 537.649 309.719 535.689 313.016 532.907 316.335 528.555 319.235 522.956 320.23 517.815 318.971 514.08 316.511 511.523 313.801 509.622 311.051 507.995 308.102 505.443 302.189 503.108 295.422 500.918 288.094 498.804 280.398 496.734 272.59 494.656 264.834 494.696 264.981 492.586 257.541 492.675 257.837 490.516 250.998 490.694 251.514 488.466 245.559 488.847 246.449 486.533 241.66 487.142 242.751 485.947 240.883 486.723 241.942 485.499 240.473 486.882 241.851 485.628 240.815 488.084 242.329 486.797 241.763 490.537 242.641 489.215 242.579 493.189 241.996 491.83 242.474 494.998 240.693 493.607 241.832 495.315 240.061 493.9 241.923 494.669 240.757 493.232 243.287 493.626 242.521 492.167 245.664 492.393 245.14 490.913 248.843 491.053 248.472 489.553 252.679 489.645 252.409 488.126 257.067 488.189 256.868 486.65 261.922 486.71 261.718 483.582 272.8 483.624 272.643 480.432 284.659 480.447 284.602 477.19 297.143 473.875 309.778 470.486 322.15 467.035 333.787 465.255 339.291 463.454 344.455 461.607 349.282 459.69 353.749 457.657 357.856 455.411 361.628 452.737 365.131 449.17 368.382 444.003 370.872 437.528 371.014 431.918 368.381 428.005 364.496 425.221 359.973 423.024 354.887 421.074 349.125 419.228 342.569 417.429 335.209 415.657 327.08 413.898 318.239 412.146 308.75 410.397 298.689 408.647 288.131 406.895 277.154 405.138 265.834 401.608 242.518 398.041 218.812 398.047 218.849 394.432 195.388 394.441 195.447 392.613 184.016 392.622 184.075 390.779 172.954 390.792 173.03 388.932 162.303 388.949 162.401 387.072 152.15 387.095 152.274 385.2 142.583 385.232 142.742 383.317 133.694 383.362 133.898 381.427 125.576 381.493 125.844 379.536 118.33 379.637 118.691 377.657 112.07 377.822 112.573 375.819 106.926 376.11 107.66 374.083 103.072 374.666 104.201 372.613 100.754 373.967 102.555 371.887 100.332 375.371 102.789 373.264 101.874 379.534 102.533 377.371 102.972 381.699 100.993 379.459 102.723 381.295 100.903 378.983 103.842 379.795 102.649 377.418 106.716 377.832 105.934 375.396 111.047 375.633 110.51 373.144 116.589 373.293 116.203 370.757 123.167 370.857 122.88 368.28 130.646 368.35 130.426 365.739 138.913 365.79 138.743 363.151 147.87 363.189 147.735 360.529 157.42 360.558 157.313 357.881 167.475 357.903 167.39 355.218 177.948 355.235 177.881 352.546 188.754 352.563 188.681 347.201 211.045 347.214 210.99 341.916 233.624 336.722 255.92 334.178 266.746 331.682 277.227 329.231 287.323 326.834 296.939 324.495 306 322.216 314.433 320 322.171 317.841 329.155 315.726 335.345 313.612 340.743 311.374 345.452 308.672 349.658 304.688 353.514 298.104 356.033 290.866 354.169 286.577 350.068 284.286 346.137 282.764 342.274 281.572 338.193 280.558 333.767 279.662 328.963 278.851 323.79 278.109 318.279 277.42 312.451 276.176 300.199 275.04 287.382 273.954 274.496 273.958 274.531 272.862 262.028 272.874 262.155 271.71 250.506 271.728 250.681 271.103 245.331 271.125 245.507 270.461 240.557 270.497 240.799 269.788 236.31 269.848 236.651 269.086 232.684 269.194 233.181 268.373 229.798 268.589 230.561 267.702 227.825 268.201 229.082 267.24 227.054 268.641 229.254 267.6 227.997 271.983 231.125 270.854 230.699 278.311 230.682 277.088 231.15 281.112 228.399 279.804 229.84 281.146 227.992 279.771 230.398 280.282 229.38 278.845 232.682 279.09 232.067 277.595 236.196 277.731 235.794 276.182 240.68 276.266 240.402 274.666 245.976 274.722 245.776 273.077 251.968 273.115 251.821 271.428 258.564 271.455 258.453 269.73 265.677 269.75 265.594 267.992 273.229 268.01 273.147 264.411 289.373 264.423 289.317 260.741 306.355 257.001 323.681 253.233 340.766 249.47 357.043 247.589 364.754 245.72 372.059 243.858 378.914 242.001 385.267 240.141 391.073 238.258 396.305 236.302 400.975 234.139 405.173 231.362 409.153 226.666 413.162 218.623 414.696 211.686 410.737 208.31 405.737 206.348 400.9 204.808 395.59 203.432 389.509 202.144 382.591 200.915 374.853 199.731 366.341 198.583 357.121 197.465 347.265 196.374 336.849 195.304 325.952 194.251 314.648 192.191 291.197 190.165 267.125 188.153 243.137 186.123 219.82 186.128 219.87 185.101 208.685 185.105 208.735 184.066 197.98 184.072 198.045 183.017 187.803 183.026 187.888 181.953 178.243 181.966 178.354 180.872 169.39 180.891 169.537 179.773 161.339 179.802 161.536 178.658 154.188 178.704 154.463 177.53 148.05 177.611 148.451 176.404 143.056 176.565 143.684 175.323 139.392 175.702 140.477 174.421 137.372 175.612 139.509 174.289 137.676 178.7 141.198 177.329 140.616 185.183 140.759 183.758 141.304 187.736 138.604 186.262 140.207 187.592 138.41 186.073 141.001 186.61 139.955 185.05 143.466 185.314 142.812 183.717 147.173 183.867 146.735 182.237 151.876 182.33 151.566 180.672 157.418 180.734 157.189 179.052 163.684 179.095 163.51 177.393 170.577 177.424 170.442 175.706 178.012 175.729 177.906 173.999 185.909 174.023 185.793 170.543 202.823 170.564 202.72 167.086 220.652 167.097 220.596 163.657 238.86 160.279 256.955 157.002 274.288 155.405 282.531 153.844 290.386 152.319 297.796 150.834 304.696 149.388 311.031 147.978 316.751 146.594 321.826 145.204 326.265 143.704 330.195 141.85 333.755 139.128 337.151 133.912 340.511 126.093 340.07 121.243 335.843 119.253 332.225 118.213 329.19 117.505 326.229 116.953 323.121 116.494 319.787 116.094 316.168 115.435 308.355 114.872 299.72 114.346 290.59 114.35 290.651 113.164 271.968 113.182 272.209 112.407 263.262 112.44 263.583 111.468 255.328 111.543 255.852 110.318 248.611 110.44 249.223 109.715 246.083 109.869 246.671 109.059 243.906 109.332 244.714 108.43 242.363 108.947 243.503 107.947 241.607 108.992 243.214 107.886 241.813 110.048 243.867 108.828 243.001 112.281 244.606 109.417 243.866 112.296 244.197 108.873 244.279 110.86 244.041 106.967 244.891 108.332 244.494 104.056 246.057 105.04 245.639 100.469 247.859 101.223 247.454 96.4452 250.277 97.0575 249.886 92.1601 253.257 92.6848 252.872 87.7555 256.736 88.2269 256.344 83.3535 260.647 83.7944 260.234 79.0646 264.921 79.4906 264.473 74.9921 269.489 76.306 267.663 60.3531 295.756ZM78.675 306.018C70.1438 321.179 50.937 326.554 35.7754 318.023 20.6139 309.492 15.2389 290.285 23.7701 275.124 32.3013 259.962 51.5081 254.587 66.6696 263.118 81.8312 271.65 87.2062 290.856 78.675 306.018ZM797.283 212.209C808.59 198.988 828.474 197.435 841.695 208.742 854.917 220.049 856.469 239.933 845.162 253.155 833.855 266.376 813.971 267.929 800.75 256.622 787.528 245.315 785.976 225.431 797.283 212.209Z" fill="#002060"/></g></g><path d="M2037.51 1489.46C2015.19 1492.61 1992.29 1488.46 1973.98 1479.16 1955.66 1469.86 1937.21 1452.13 1927.62 1433.67 1918.03 1415.22 1910.88 1387.47 1916.46 1368.45 1922.04 1349.43 1935.92 1330.83 1961.1 1319.53 1986.28 1308.23 2034.36 1299.22 2067.55 1300.65 2100.75 1302.08 2145.53 1309.66 2160.27 1328.11 2175.01 1346.56 2171 1385.61 2155.98 1411.36 2140.96 1437.11 2127.08 1447.69 2107.9 1460.28 2088.73 1472.87 2059.83 1486.31 2037.51 1489.46Z" stroke="#000000" stroke-width="4.58333" stroke-miterlimit="8" fill="#FF89A5" fill-rule="evenodd"/><path d="M1907.24 1377.77C1899.22 1375.19 1870.29 1352.26 1860.84 1339.07 1851.39 1325.89 1851.96 1312.56 1850.53 1298.65 1849.1 1284.75 1853.39 1272.42 1852.25 1255.66 1851.1 1238.89 1842.22 1215.24 1843.66 1198.04 1845.09 1180.84 1850.82 1166.94 1860.84 1152.46 1870.87 1137.99 1892.35 1126.95 1903.81 1111.19 1915.26 1095.42 1916.27 1072.06 1929.59 1057.87 1942.91 1043.68 1969.69 1037.23 1983.72 1026.05 1997.76 1014.87 2000.77 999.822 2013.8 990.793 2026.83 981.763 2047.17 975.027 2061.92 971.874 2076.67 968.721 2086.7 973.594 2102.31 971.874 2117.92 970.154 2138.26 960.695 2155.59 961.555 2172.92 962.415 2192.68 976.317 2206.29 977.034 2219.89 977.75 2223.9 967.144 2237.22 965.854 2250.54 964.565 2271.31 963.561 2286.2 969.294 2301.1 975.027 2312.7 995.809 2326.59 1000.25 2340.48 1004.7 2357.38 995.38 2369.56 995.953 2381.73 996.526 2389.32 996.812 2399.63 1003.69 2409.94 1010.57 2416.39 1028.06 2431.43 1037.23 2446.46 1046.4 2474.54 1043.39 2489.86 1058.73 2505.18 1074.06 2512.2 1108.89 2523.37 1129.24 2534.54 1149.6 2553.74 1159.06 2556.89 1180.84 2560.04 1202.63 2550.44 1234.87 2542.28 1259.96 2534.11 1285.04 2527.24 1317.86 2507.91 1331.33 2488.57 1344.8 2448.76 1334.77 2426.27 1340.79 2403.79 1346.81 2389.03 1355.12 2372.99 1367.45 2356.95 1379.78 2349.5 1405.43 2330.03 1414.75 2310.55 1424.06 2273.31 1423.78 2256.13 1423.35 2238.94 1422.92 2238.22 1407.44 2226.91 1412.17 2215.6 1416.9 2209.15 1437.82 2188.24 1451.72 2167.33 1465.63 2118.21 1485.12 2101.45 1495.58 2084.69 1506.04 2096.72 1514.5 2087.7 1514.5 2078.68 1514.5 2044.31 1503.18 2047.31 1495.58 2050.32 1487.98 2086.7 1481.82 2105.75 1468.92 2124.79 1456.02 2150.29 1438.25 2161.6 1418.19 2172.92 1398.12 2177.21 1366.88 2173.63 1348.53 2170.05 1330.18 2159.88 1317.14 2140.12 1308.11 2120.35 1299.08 2080.83 1294.78 2055.05 1294.35 2029.27 1293.92 2004.2 1301.23 1985.44 1305.53 1966.68 1309.83 1955.22 1311.98 1942.48 1320.15 1929.73 1328.32 1914.69 1345.38 1908.96 1354.55 1903.23 1363.72 1915.26 1380.35 1907.24 1377.77Z" stroke="#172C51" stroke-width="4.58333" stroke-miterlimit="8" fill="#FF89A5" fill-rule="evenodd"/><path d="M1989 1021C2006.03 1039.6 2012.36 1056.39 2025.95 1077.53 2037.81 1096.78 2052.96 1132.43 2059.46 1150.33 2062.61 1168.67 2061.96 1185.3 2057.74 1194.87 2051.24 1203.77 2051.98 1202.43 2021.65 1206" stroke="#FFFFFF" stroke-width="10.3125" stroke-miterlimit="8" fill="none" fill-rule="evenodd"/><path d="M2046 1204C2048.7 1213.09 2055.18 1229.9 2064.86 1237.2 2074.51 1244.67 2096.72 1260.5 2107.71 1261.88 2118.91 1263.43 2131.31 1251.77 2136 1245.71 2141.88 1239.96 2141.68 1237.65 2142 1226.98" stroke="#FFFFFF" stroke-width="10.3125" stroke-miterlimit="8" fill="none" fill-rule="evenodd"/><path d="M2111 1130.48C2115.28 1103.95 2120.12 1076.9 2130.77 1061.75 2142.97 1042.94 2161.16 1037.99 2172.89 1035.12 2184.4 1033.07 2191.23 1035.46 2201.25 1046.29 2210 1057.74 2223.45 1088.06 2222.74 1110.72 2224 1133.52 2216.23 1153.45 2212.43 1170" stroke="#FFFFFF" stroke-width="10.3125" stroke-miterlimit="8" fill="none" fill-rule="evenodd"/><path d="M2102 976C2095.46 986.342 2091.3 995.008 2088.64 1003.5 2087.77 1012.63 2086.33 1020.25 2092.2 1031" stroke="#FFFFFF" stroke-width="10.3125" stroke-miterlimit="8" fill="none" fill-rule="evenodd"/><path d="M2210 1064C2220.82 1053.44 2232.84 1040.69 2235.97 1032.8 2238.83 1020.9 2241.07 1007.82 2236.83 1000.73 2233.59 992.938 2227.6 988.151 2221.25 986" stroke="#FFFFFF" stroke-width="10.3125" stroke-miterlimit="8" fill="none" fill-rule="evenodd"/><path d="M2324 1006C2320.87 1012.45 2318.01 1019.13 2316.52 1029.03 2315.33 1036.07 2315.64 1051.79 2318.19 1064" stroke="#FFFFFF" stroke-width="10.3125" stroke-miterlimit="8" fill="none" fill-rule="evenodd"/><path d="M2514 1130.33C2500.96 1130.29 2490.97 1129.16 2475.48 1130.33 2466.62 1131.22 2453.51 1139.12 2440.38 1144.18 2428.38 1152.87 2414.75 1165 2410.42 1177.06 2406.44 1191.96 2401.55 1201.42 2401 1216" stroke="#FFFFFF" stroke-width="10.3125" stroke-miterlimit="8" fill="none" fill-rule="evenodd"/><path d="M2538 1258.6C2530.17 1260.5 2519.3 1260.88 2509.12 1258.6 2497.2 1253.06 2485.43 1250.54 2476 1244" stroke="#FFFFFF" stroke-width="10.3125" stroke-miterlimit="8" fill="none" fill-rule="evenodd"/><path d="M2174 1395.06C2189.49 1396.6 2209.42 1402.73 2223.74 1401.03 2237.9 1397.84 2262.09 1387.82 2270.9 1377.13 2283.44 1367.58 2280.95 1353.07 2278.62 1337" stroke="#FFFFFF" stroke-width="10.3125" stroke-miterlimit="8" fill="none" fill-rule="evenodd"/><path d="M2276 1369C2308.85 1366.23 2341.27 1356.48 2358.55 1347.32 2378.26 1334.47 2389.92 1318.51 2394.67 1309.16 2397.94 1297.89 2380.97 1287.59 2375.75 1279.67 2370.45 1273.31 2362.85 1271 2362.85 1271" stroke="#FFFFFF" stroke-width="10.3125" stroke-miterlimit="8" fill="none" fill-rule="evenodd"/><path d="M1867 1193.11C1872.3 1183.87 1879.2 1175.29 1884.25 1173.35 1889.8 1170.44 1894.18 1168.48 1903.24 1172.49 1913.73 1172.24 1927.96 1180.73 1936.02 1198.27 1944.64 1212.93 1948.96 1267 1955 1262.71" stroke="#FFFFFF" stroke-width="10.3125" stroke-miterlimit="8" fill="none" fill-rule="evenodd"/><path d="M1900 1171C1904.64 1159.24 1903.78 1145.39 1909.52 1134.06 1917.29 1123.15 1936.16 1111.15 1945 1104" stroke="#FFFFFF" stroke-width="10.3125" stroke-miterlimit="8" fill="none" fill-rule="evenodd"/><path d="M2265.85 1102C2283.02 1107.54 2297.96 1112.33 2310.5 1126.92 2319.73 1135.09 2331.5 1160.08 2331.97 1180.19 2330.3 1200.61 2318.53 1224.26 2306.21 1242.91 2288.9 1263.71 2262.36 1285.56 2246.96 1286.73 2228.61 1288.75 2199.47 1270.55 2187.7 1259.23 2174.07 1247.48 2177.74 1231.11 2183.41 1214.55" stroke="#FFFFFF" stroke-width="10.3125" stroke-miterlimit="8" fill="none" fill-rule="evenodd"/><path d="M2332 1173C2350.22 1171.38 2361.88 1171.38 2369.27 1159.16 2377.67 1152.96 2382.03 1123.49 2378.8 1108.98 2377.85 1092.77 2365.01 1072.98 2363.2 1064" stroke="#FFFFFF" stroke-width="10.3125" stroke-miterlimit="8" fill="none" fill-rule="evenodd"/><path d="M1806.53 1224.76 1823.03 1195.7 1828.48 1189.63 1833.63 1184.52 1838.95 1179.82 1844.37 1175.57 1849.83 1171.82 1855.28 1168.6 1860.7 1165.97 1866.12 1163.98 1871.66 1162.77 1877.51 1162.63 1883.61 1164.21 1887.58 1167.03 1890.19 1170.34 1891.92 1173.61 1893.19 1176.93 1894.2 1180.38 1895.06 1184.11 1896.38 1191.91 1897.41 1200.58 1898.2 1209.81 1899.4 1228.64 1899.93 1237.76 1899.92 1237.68 1900.47 1246.18 1900.46 1245.98 1901.1 1253.56 1901.07 1253.29 1901.44 1256.64 1901.41 1256.36 1901.82 1259.36 1901.76 1258.96 1902.22 1261.56 1902.1 1260.97 1902.62 1263.14 1902.34 1262.19 1902.92 1263.9 1902.21 1262.27 1902.86 1263.46 1900.6 1260.65 1901.33 1261.29 1895.14 1258.77 1895.95 1258.82 1889.79 1260.44 1890.7 1259.86 1888.24 1262.08 1889.24 1260.82 1888.14 1262.5 1889.24 1260.4 1888.75 1261.48 1889.92 1258.42 1889.72 1259.02 1890.95 1255.07 1890.84 1255.44 1892.14 1250.68 1892.08 1250.92 1893.44 1245.42 1893.39 1245.59 1894.81 1239.41 1894.78 1239.53 1896.24 1232.74 1896.22 1232.83 1897.73 1225.5 1897.71 1225.57 1899.26 1217.78 1899.25 1217.82 1900.84 1209.63 1900.83 1209.68 1904.11 1192.37 1907.48 1174.32 1910.93 1155.99 1914.42 1137.98 1917.92 1120.85 1919.68 1112.73 1921.42 1105.05 1923.16 1097.83 1924.89 1091.13 1926.63 1085.02 1928.37 1079.51 1930.17 1074.61 1932.1 1070.25 1934.47 1066.21 1938.34 1062.01 1945.91 1059.11 1953.76 1062.44 1957.48 1067.59 1959.43 1072.34 1960.92 1077.48 1962.24 1083.38 1963.48 1090.13 1964.66 1097.71 1965.8 1106.07 1966.91 1115.16 1967.99 1124.91 1969.06 1135.22 1970.1 1146.03 1971.13 1157.27 1973.16 1180.61 1975.18 1204.66 1977.21 1228.71 1977.2 1228.67 1979.26 1252.08 1979.25 1252.02 1980.3 1263.27 1980.3 1263.22 1981.36 1274.06 1981.35 1273.99 1982.44 1284.33 1982.43 1284.24 1983.53 1294 1983.52 1293.88 1984.65 1302.97 1984.63 1302.83 1985.79 1311.16 1985.76 1310.97 1986.95 1318.47 1986.91 1318.2 1988.13 1324.78 1988.05 1324.39 1989.32 1329.97 1989.16 1329.37 1990.46 1333.86 1990.12 1332.86 1991.46 1336.17 1990.45 1334.28 1991.84 1336.34 1988.41 1333.15 1989.85 1333.98 1982.81 1332.8 1984.31 1332.52 1979.55 1334.8 1981.1 1333.48 1979.34 1335.42 1980.95 1333.12 1980.24 1334.29 1981.89 1331.09 1981.54 1331.83 1983.24 1327.79 1983.04 1328.28 1984.77 1323.48 1984.66 1323.82 1986.42 1318.32 1986.34 1318.58 1988.13 1312.45 1988.08 1312.64 1989.89 1305.96 1989.85 1306.1 1991.69 1298.93 1991.66 1299.04 1993.51 1291.45 1993.48 1291.57 1997.22 1275.41 1997.2 1275.51 2000.95 1258.5 2000.94 1258.54 2004.67 1241.24 2008.36 1224.17 2011.98 1207.88 2013.75 1200.16 2015.5 1192.84 2017.22 1185.97 2018.91 1179.61 2020.58 1173.8 2022.23 1168.58 2023.91 1163.95 2025.7 1159.84 2027.91 1155.97 2031.63 1151.87 2038.81 1149.12 2046.16 1151.89 2049.77 1156.25 2051.57 1160.05 2052.78 1163.79 2053.76 1167.79 2054.6 1172.17 2055.35 1176.95 2056.04 1182.11 2056.69 1187.63 2057.87 1199.43 2058.97 1212.01 2060.05 1224.89 2060.05 1224.84 2061.18 1237.57 2061.17 1237.44 2062.39 1249.54 2062.38 1249.37 2063.04 1255.03 2063.02 1254.86 2063.74 1260.18 2063.71 1259.96 2064.48 1264.87 2064.43 1264.57 2065.26 1269.02 2065.17 1268.61 2066.07 1272.52 2065.91 1271.93 2066.89 1275.26 2066.58 1274.37 2067.63 1277.04 2066.95 1275.63 2068.09 1277.59 2066.31 1275.33 2067.54 1276.51 2062.99 1273.98 2064.33 1274.32 2058.07 1274.68 2059.52 1274.12 2056.03 1276.34 2057.6 1274.83 2056.1 1276.66 2057.78 1274.04 2057.14 1275.19 2058.93 1271.42 2058.64 1272.09 2060.54 1267.25 2060.38 1267.67 2062.37 1261.85 2062.28 1262.14 2064.36 1255.41 2064.3 1255.61 2066.46 1248.06 2066.42 1248.21 2068.66 1239.91 2068.64 1240.02 2070.95 1231.06 2070.93 1231.14 2073.31 1221.6 2073.29 1221.66 2075.73 1211.62 2075.72 1211.66 2078.21 1201.2 2080.74 1190.44 2085.92 1168.18 2091.23 1145.5 2096.61 1123.07 2099.32 1112.13 2102.02 1101.49 2104.72 1091.24 2107.42 1081.43 2110.1 1072.16 2112.77 1063.48 2115.43 1055.46 2118.08 1048.17 2120.76 1041.63 2123.51 1035.87 2126.46 1030.81 2130.01 1026.31 2135.16 1022.33 2142.85 1020.77 2149.9 1023.83 2154.2 1028.42 2157.14 1033.36 2159.58 1038.88 2161.8 1045.14 2163.91 1052.18 2165.95 1060.01 2167.93 1068.56 2169.89 1077.79 2171.81 1087.62 2173.71 1097.98 2175.58 1108.79 2177.44 1119.98 2179.27 1131.47 2182.9 1154.97 2186.47 1178.7 2189.99 1201.98 2189.98 1201.94 2191.74 1213.22 2191.73 1213.17 2193.47 1224.1 2193.46 1224.04 2195.2 1234.52 2195.19 1234.44 2196.92 1244.41 2196.9 1244.3 2198.63 1253.67 2198.6 1253.53 2200.33 1262.2 2200.29 1262.02 2202.01 1269.92 2201.96 1269.67 2203.68 1276.73 2203.59 1276.38 2205.31 1282.5 2205.15 1281.99 2206.88 1287.09 2206.58 1286.3 2208.3 1290.3 2207.62 1288.99 2209.35 1291.8 2207.83 1289.89 2209.57 1291.61 2206.68 1289.59 2208.42 1290.4 2203.81 1289.43 2205.55 1289.39 2201.3 1290.41 2203.03 1289.58 2200.56 1291.24 2202.3 1289.66 2201.04 1291.03 2202.78 1288.76 2202.11 1289.74 2203.84 1286.83 2203.46 1287.53 2205.19 1284.05 2204.95 1284.56 2206.68 1280.55 2206.52 1280.93 2208.24 1276.44 2208.13 1276.73 2209.84 1271.83 2209.77 1272.05 2211.47 1266.78 2211.4 1267.02 2214.78 1255.62 2214.72 1255.82 2218.06 1243.61 2218.04 1243.72 2221.34 1231.14 2224.59 1218.62 2227.81 1206.5 2230.99 1195.24 2232.58 1189.99 2234.18 1185.1 2235.79 1180.58 2237.45 1176.43 2239.2 1172.65 2241.19 1169.15 2243.76 1165.78 2247.49 1162.72 2252.46 1160.97 2257.7 1161.22 2262.06 1163.13 2265.16 1165.69 2267.41 1168.4 2269.28 1171.33 2272.07 1177.1 2274.56 1183.75 2276.85 1190.99 2279.02 1198.65 2281.11 1206.48 2283.19 1214.3 2283.16 1214.21 2285.23 1221.75 2285.17 1221.52 2287.26 1228.53 2287.13 1228.12 2289.27 1234.3 2288.99 1233.58 2291.18 1238.67 2290.74 1237.77 2291.87 1239.81 2291.32 1238.93 2292.47 1240.59 2291.48 1239.37 2292.66 1240.62 2290.83 1239.08 2292.02 1239.87 2288.81 1238.46 2290.03 1238.77 2285.77 1238.63 2287.03 1238.4 2283.12 1239.98 2284.39 1239.13 2282.2 1241.09 2283.47 1239.57 2282.51 1240.93 2283.78 1238.8 2283.31 1239.69 2284.57 1236.99 2284.31 1237.59 2285.58 1234.38 2285.42 1234.8 2286.69 1231.13 2286.59 1231.43 2287.86 1227.34 2287.8 1227.56 2289.07 1223.11 2289.01 1223.33 2291.58 1213.53 2291.53 1213.7 2294.13 1203.04 2294.12 1203.09 2296.76 1191.96 2299.48 1180.71 2302.28 1169.7 2305.18 1159.36 2306.71 1154.46 2308.28 1149.86 2309.92 1145.56 2311.66 1141.56 2313.58 1137.85 2315.79 1134.39 2318.59 1131.14 2322.51 1128.2 2328 1126.46 2334.02 1127.23 2338.82 1130.03 2342.29 1133.69 2344.98 1138 2347.26 1142.92 2349.36 1148.54 2351.41 1154.93 2353.45 1162.08 2355.5 1169.96 2357.57 1178.52 2359.66 1187.69 2361.77 1197.39 2363.9 1207.56 2366.05 1218.12 2368.22 1228.99 2372.6 1251.35 2377.04 1274.06 2377.03 1274.02 2381.5 1296.45 2381.49 1296.39 2383.73 1307.31 2383.72 1307.25 2385.96 1317.85 2385.95 1317.78 2388.19 1328 2388.17 1327.9 2390.41 1337.66 2390.38 1337.54 2392.61 1346.75 2392.57 1346.59 2394.79 1355.18 2394.74 1354.98 2396.95 1362.86 2396.88 1362.6 2399.08 1369.7 2398.96 1369.35 2401.14 1375.59 2400.95 1375.09 2403.12 1380.39 2402.79 1379.67 2404.94 1383.95 2404.3 1382.85 2406.42 1386.03 2404.96 1384.3 2407.06 1386.3 2403.42 1384.05 2405.49 1384.79 2399.31 1384.54 2401.37 1383.99 2397.28 1386.16 2399.33 1384.38 2397.64 1386.26 2399.69 1383.32 2398.96 1384.54 2401.01 1380.52 2400.65 1381.31 2402.7 1376.3 2402.49 1376.84 2404.54 1370.9 2404.42 1371.29 2406.46 1364.5 2406.38 1364.78 2408.42 1357.23 2408.36 1357.44 2410.4 1349.19 2410.36 1349.36 2412.39 1340.48 2412.36 1340.61 2414.39 1331.2 2414.37 1331.3 2416.39 1321.42 2416.37 1321.5 2418.39 1311.23 2418.38 1311.29 2420.39 1300.71 2420.38 1300.77 2424.39 1278.97 2424.38 1279.01 2428.37 1256.87 2432.32 1234.97 2436.26 1213.92 2438.22 1203.87 2440.18 1194.26 2442.13 1185.16 2444.08 1176.62 2446.04 1168.7 2448.01 1161.48 2450.01 1154.97 2452.08 1149.2 2454.32 1144.12 2456.89 1139.72 2459.95 1136.04 2463.74 1133.01 2468.52 1131.01 2473.79 1130.68 2478.59 1131.99 2482.44 1134.23 2485.53 1136.92 2488.13 1139.89 2490.45 1143.09 2492.65 1146.63 2496.57 1154.08 2500.34 1162.44 2503.96 1171.34 2510.85 1189.44 2514.16 1198.09 2514.08 1197.91 2517.31 1205.9 2517.15 1205.52 2520.29 1212.49 2520.07 1212.02 2521.6 1215.01 2521.35 1214.54 2522.86 1217.14 2522.45 1216.5 2523.93 1218.67 2523.25 1217.78 2524.7 1219.47 2523.44 1218.24 2524.87 1219.41 2522.47 1217.93 2523.86 1218.55 2519.89 1217.67 2522.97 1217.73 2520.01 1218.1 2523.68 1217.08 2522.03 1217.69 2526.2 1215.72 2525.22 1216.25 2529.78 1213.46 2529.16 1213.87 2534.02 1210.39 2533.59 1210.71 2538.65 1206.67 2538.33 1206.93 2543.5 1202.45 2543.25 1202.67 2548.43 1197.89 2548.15 1198.16 2558.13 1188.21 2557.56 1188.83 2577.65 1165.27 2593.35 1178.65 2572.98 1202.53 2562.56 1212.91 2557.13 1217.93 2551.69 1222.65 2546.26 1226.99 2540.88 1230.85 2535.52 1234.13 2530.06 1236.71 2524.08 1238.38 2517.41 1238.25 2512.82 1236.21 2509.62 1233.56 2507.22 1230.77 2505.2 1227.82 2503.37 1224.66 2501.6 1221.2 2498.27 1213.82 2494.92 1205.55 2491.57 1196.77 2484.73 1178.79 2484.82 1179.01 2481.31 1170.39 2481.45 1170.74 2477.89 1162.83 2478.17 1163.4 2474.57 1156.56 2474.94 1157.2 2473.13 1154.29 2473.53 1154.88 2471.71 1152.37 2472.32 1153.13 2470.49 1151.05 2471.46 1152.02 2469.63 1150.42 2471.21 1151.56 2469.38 1150.49 2471.87 1151.53 2470.03 1151.03 2473.37 1151.37 2471.53 1151.49 2474.88 1150.71 2473.03 1151.48 2475.49 1150.02 2473.65 1151.49 2475.14 1150.03 2473.3 1152.24 2474.27 1150.86 2472.43 1154.01 2472.96 1152.97 2471.1 1157.19 2471.37 1156.52 2469.5 1161.72 2469.65 1161.27 2467.77 1167.39 2467.86 1167.06 2465.97 1174.01 2466.03 1173.78 2464.12 1181.48 2464.17 1181.3 2462.25 1189.68 2462.28 1189.55 2460.35 1198.54 2460.38 1198.43 2458.44 1207.95 2458.45 1207.87 2456.51 1217.83 2456.52 1217.75 2452.6 1238.73 2452.62 1238.67 2448.66 1260.52 2444.68 1282.68 2440.66 1304.53 2438.64 1315.18 2436.6 1325.52 2434.56 1335.49 2432.51 1345.02 2430.44 1354.05 2428.36 1362.49 2426.25 1370.3 2424.11 1377.42 2421.9 1383.83 2419.58 1389.51 2417.01 1394.55 2413.83 1399.11 2409.02 1403.28 2401.55 1405.3 2394.39 1402.72 2389.89 1398.42 2386.78 1393.76 2384.18 1388.56 2381.76 1382.65 2379.43 1375.98 2377.13 1368.57 2374.85 1360.45 2372.58 1351.68 2370.32 1342.33 2368.05 1332.47 2365.79 1322.16 2363.53 1311.49 2361.28 1300.51 2356.8 1278.03 2352.36 1255.32 2347.98 1232.98 2347.99 1233.01 2345.83 1222.17 2345.84 1222.21 2343.69 1211.71 2343.71 1211.76 2341.59 1201.66 2341.6 1201.74 2339.51 1192.12 2339.54 1192.22 2337.47 1183.17 2337.5 1183.3 2335.47 1174.9 2335.52 1175.07 2333.52 1167.39 2333.58 1167.62 2331.62 1160.75 2331.72 1161.07 2329.79 1155.08 2329.95 1155.54 2328.07 1150.51 2328.37 1151.21 2326.53 1147.22 2327.15 1148.37 2325.36 1145.5 2326.62 1147.14 2324.87 1145.3 2327.14 1147.1 2325.43 1146.09 2329.33 1147.42 2327.65 1147.21 2332.07 1146.81 2330.42 1147.33 2333.48 1145.76 2331.86 1146.97 2333.5 1145.44 2331.9 1147.29 2332.77 1146.13 2331.2 1148.57 2331.68 1147.74 2330.14 1150.72 2330.43 1150.11 2328.92 1153.58 2329.1 1153.13 2327.62 1157.03 2327.74 1156.69 2326.27 1160.99 2326.36 1160.73 2324.92 1165.36 2325 1165.07 2322.17 1175.15 2322.24 1174.91 2319.48 1185.73 2319.51 1185.61 2316.82 1196.78 2316.83 1196.75 2314.18 1207.89 2311.55 1218.67 2308.93 1228.67 2307.59 1233.35 2306.24 1237.7 2304.85 1241.74 2303.38 1245.46 2301.76 1248.91 2299.81 1252.18 2297.06 1255.47 2292.76 1258.33 2287.24 1259.32 2282.17 1258.07 2278.48 1255.64 2275.95 1252.96 2274.06 1250.23 2272.44 1247.3 2269.9 1241.4 2267.56 1234.64 2265.38 1227.32 2263.26 1219.63 2261.19 1211.82 2259.11 1204.06 2259.15 1204.21 2257.04 1196.77 2257.13 1197.06 2254.97 1190.22 2255.15 1190.73 2252.92 1184.77 2253.29 1185.64 2250.98 1180.86 2251.58 1181.93 2250.38 1180.06 2251.14 1181.1 2249.92 1179.63 2251.28 1180.98 2250.03 1179.95 2252.44 1181.44 2251.15 1180.87 2254.82 1181.73 2253.5 1181.67 2257.4 1181.1 2256.04 1181.57 2259.16 1179.83 2257.77 1180.96 2259.44 1179.23 2258.03 1181.09 2258.78 1179.94 2257.35 1182.47 2257.73 1181.72 2256.27 1184.86 2256.5 1184.35 2255.02 1188.05 2255.15 1187.69 2253.65 1191.89 2253.74 1191.63 2252.22 1196.29 2252.29 1196.09 2250.75 1201.15 2250.81 1200.94 2247.68 1212.03 2247.72 1211.87 2244.53 1223.89 2244.54 1223.83 2241.29 1236.37 2237.97 1249.01 2234.58 1261.38 2231.13 1273.01 2229.35 1278.51 2227.56 1283.67 2225.71 1288.49 2223.8 1292.95 2221.77 1297.04 2219.53 1300.8 2216.88 1304.28 2213.34 1307.5 2208.24 1309.96 2201.85 1310.1 2196.3 1307.5 2192.43 1303.66 2189.67 1299.16 2187.48 1294.1 2185.53 1288.35 2183.69 1281.8 2181.89 1274.44 2180.12 1266.32 2178.36 1257.48 2176.61 1247.99 2174.86 1237.94 2173.11 1227.38 2171.36 1216.4 2169.6 1205.08 2166.07 1181.77 2162.5 1158.06 2162.51 1158.1 2158.89 1134.64 2158.9 1134.69 2157.08 1123.26 2157.08 1123.32 2155.24 1112.2 2155.25 1112.28 2153.39 1101.55 2153.41 1101.64 2151.53 1091.39 2151.56 1091.52 2149.66 1081.82 2149.69 1081.98 2147.78 1072.93 2147.82 1073.13 2145.89 1064.81 2145.95 1065.07 2143.99 1057.56 2144.09 1057.91 2142.11 1051.29 2142.28 1051.79 2140.27 1046.14 2140.56 1046.86 2138.53 1042.27 2139.1 1043.38 2137.05 1039.94 2138.38 1041.7 2136.3 1039.48 2139.72 1041.89 2137.62 1040.98 2143.77 1041.63 2141.61 1042.07 2145.86 1040.12 2143.62 1041.85 2145.43 1040.06 2143.11 1043 2143.91 1041.83 2141.53 1045.9 2141.94 1045.13 2139.5 1050.24 2139.74 1049.72 2137.25 1055.8 2137.39 1055.42 2134.86 1062.38 2134.96 1062.1 2132.38 1069.86 2132.45 1069.65 2129.84 1078.14 2129.89 1077.97 2127.25 1087.09 2127.29 1086.96 2124.63 1096.65 2124.65 1096.54 2121.98 1106.7 2122 1106.62 2119.31 1117.18 2119.33 1117.11 2116.64 1127.99 2116.66 1127.91 2111.3 1150.28 2111.31 1150.22 2106.01 1172.86 2100.82 1195.15 2098.27 1205.98 2095.78 1216.46 2093.33 1226.56 2090.93 1236.17 2088.59 1245.23 2086.31 1253.66 2084.1 1261.39 2081.94 1268.37 2079.83 1274.56 2077.72 1279.95 2075.49 1284.64 2072.8 1288.82 2068.86 1292.63 2062.37 1295.11 2055.24 1293.28 2051 1289.23 2048.73 1285.33 2047.22 1281.49 2046.03 1277.42 2045.02 1273.01 2044.12 1268.21 2043.31 1263.04 2042.57 1257.53 2041.88 1251.71 2040.64 1239.46 2039.5 1226.64 2038.42 1213.76 2038.42 1213.79 2037.33 1201.29 2037.34 1201.41 2036.17 1189.76 2036.19 1189.94 2035.57 1184.59 2035.59 1184.76 2034.92 1179.81 2034.96 1180.05 2034.25 1175.56 2034.31 1175.89 2033.55 1171.93 2033.65 1172.41 2032.83 1169.03 2033.04 1169.78 2032.16 1167.04 2032.65 1168.28 2031.69 1166.25 2033.06 1168.41 2032.02 1167.15 2036.33 1170.23 2035.2 1169.8 2042.52 1169.78 2041.3 1170.25 2045.25 1167.55 2043.94 1168.99 2045.26 1167.18 2043.89 1169.58 2044.39 1168.58 2042.95 1171.88 2043.19 1171.28 2041.7 1175.41 2041.83 1175.01 2040.28 1179.9 2040.36 1179.63 2038.76 1185.2 2038.82 1185 2037.17 1191.2 2037.21 1191.05 2035.52 1197.8 2035.55 1197.69 2033.83 1204.91 2033.84 1204.83 2032.09 1212.46 2032.1 1212.38 2028.51 1228.61 2028.52 1228.56 2024.83 1245.59 2021.1 1262.92 2017.33 1280 2013.57 1296.28 2011.68 1303.99 2009.82 1311.29 2007.95 1318.14 2006.1 1324.49 2004.24 1330.29 2002.36 1335.51 2000.41 1340.17 1998.26 1344.35 1995.5 1348.3 1990.86 1352.26 1982.93 1353.78 1976.09 1349.87 1972.75 1344.93 1970.8 1340.12 1969.27 1334.82 1967.89 1328.75 1966.61 1321.84 1965.38 1314.1 1964.19 1305.59 1963.05 1296.38 1961.93 1286.52 1960.84 1276.11 1959.77 1265.21 1958.72 1253.91 1956.66 1230.46 1954.63 1206.39 1952.62 1182.4 1950.59 1159.08 1950.59 1159.13 1949.56 1147.95 1949.57 1147.99 1948.53 1137.24 1948.54 1137.3 1947.48 1127.06 1947.49 1127.14 1946.42 1117.5 1946.43 1117.61 1945.34 1108.64 1945.35 1108.79 1944.24 1100.59 1944.26 1100.78 1943.12 1093.44 1943.17 1093.71 1941.99 1087.29 1942.07 1087.69 1940.86 1082.29 1941.02 1082.91 1939.78 1078.62 1940.15 1079.68 1938.87 1076.58 1940.04 1078.68 1938.72 1076.84 1943.05 1080.3 1941.68 1079.72 1949.39 1079.86 1947.97 1080.41 1951.88 1077.75 1950.4 1079.36 1951.71 1077.59 1950.19 1080.18 1950.72 1079.16 1949.16 1082.67 1949.42 1082.03 1947.82 1086.39 1947.97 1085.96 1946.34 1091.1 1946.43 1090.79 1944.77 1096.64 1944.83 1096.42 1943.15 1102.91 1943.19 1102.74 1941.49 1109.81 1941.52 1109.68 1939.8 1117.25 1939.82 1117.14 1938.09 1125.15 1938.12 1125.03 1934.64 1142.06 1934.66 1141.96 1931.18 1159.89 1931.19 1159.84 1927.75 1178.1 1924.37 1196.2 1921.1 1213.53 1919.5 1221.77 1917.94 1229.63 1916.41 1237.03 1914.93 1243.93 1913.48 1250.27 1912.07 1255.98 1910.69 1261.05 1909.3 1265.48 1907.81 1269.39 1905.97 1272.93 1903.28 1276.29 1898.14 1279.6 1890.45 1279.16 1885.67 1275 1883.7 1271.43 1882.67 1268.42 1881.97 1265.47 1881.42 1262.37 1880.96 1259.04 1880.56 1255.43 1879.9 1247.62 1879.34 1238.99 1878.81 1229.86 1878.81 1229.92 1877.63 1211.23 1877.65 1211.47 1876.87 1202.52 1876.9 1202.84 1875.93 1194.58 1876.01 1195.1 1874.78 1187.86 1874.9 1188.46 1874.17 1185.32 1874.33 1185.9 1873.52 1183.13 1873.78 1183.92 1872.88 1181.57 1873.39 1182.69 1872.39 1180.8 1873.42 1182.38 1872.31 1180.97 1874.43 1182.99 1873.21 1182.13 1876.61 1183.7 1873.74 1182.96 1876.57 1183.29 1873.15 1183.37 1875.1 1183.14 1871.2 1183.98 1872.54 1183.6 1868.27 1185.16 1869.24 1184.75 1864.66 1186.97 1865.41 1186.57 1860.63 1189.39 1861.23 1189.01 1856.33 1192.38 1856.85 1192 1851.92 1195.87 1852.38 1195.48 1847.51 1199.78 1847.94 1199.38 1843.21 1204.07 1843.63 1203.63 1839.13 1208.64 1840.42 1206.85 1824.47 1234.94ZM1842.51 1244.94C1834.17 1259.86 1815.32 1265.19 1800.41 1256.85 1785.49 1248.52 1780.16 1229.67 1788.49 1214.75 1796.83 1199.84 1815.68 1194.51 1830.59 1202.84 1845.51 1211.18 1850.84 1230.03 1842.51 1244.94ZM2561.96 1151.89C2573.05 1138.88 2592.57 1137.33 2605.57 1148.42 2618.57 1159.51 2620.13 1179.03 2609.04 1192.03 2597.95 1205.03 2578.43 1206.59 2565.43 1195.5 2552.42 1184.41 2550.87 1164.89 2561.96 1151.89Z" fill="#002060"/></g></svg>