<svg width="833" height="558" xmlns="http://www.w3.org/2000/svg" xmlns:xlink="http://www.w3.org/1999/xlink" xml:space="preserve" overflow="hidden"><g transform="translate(-1750 -917)"><path d="M2003.51 1447.46C1981.19 1450.61 1958.29 1446.46 1939.98 1437.16 1921.66 1427.86 1903.21 1410.13 1893.62 1391.67 1884.03 1373.22 1876.88 1345.47 1882.46 1326.45 1888.04 1307.43 1901.92 1288.83 1927.1 1277.53 1952.28 1266.23 2000.36 1257.22 2033.55 1258.65 2066.75 1260.08 2111.53 1267.66 2126.27 1286.11 2141.01 1304.56 2137 1343.61 2121.98 1369.36 2106.96 1395.11 2093.08 1405.69 2073.9 1418.28 2054.73 1430.87 2025.83 1444.31 2003.51 1447.46Z" stroke="#000000" stroke-width="4.58333" stroke-miterlimit="8" fill="#FF89A5" fill-rule="evenodd"/><path d="M1873.24 1335.77C1865.22 1333.19 1836.29 1310.26 1826.84 1297.07 1817.39 1283.89 1817.96 1270.56 1816.53 1256.65 1815.1 1242.75 1819.39 1230.43 1818.25 1213.66 1817.1 1196.89 1808.22 1173.24 1809.66 1156.04 1811.09 1138.84 1816.82 1124.94 1826.84 1110.46 1836.87 1095.99 1858.35 1084.95 1869.81 1069.19 1881.26 1053.42 1882.27 1030.06 1895.59 1015.87 1908.91 1001.68 1935.69 995.23 1949.72 984.051 1963.76 972.872 1966.77 957.822 1979.8 948.793 1992.83 939.764 2013.17 933.027 2027.92 929.874 2042.67 926.721 2052.7 931.594 2068.31 929.874 2083.92 928.155 2104.26 918.695 2121.59 919.555 2138.92 920.415 2158.68 934.317 2172.29 935.034 2185.89 935.75 2189.9 925.145 2203.22 923.855 2216.54 922.565 2237.31 921.561 2252.2 927.294 2267.1 933.027 2278.7 953.809 2292.59 958.252 2306.48 962.695 2323.38 953.38 2335.56 953.953 2347.73 954.526 2355.32 954.813 2365.63 961.692 2375.94 968.572 2382.39 986.057 2397.43 995.23 2412.46 1004.4 2440.54 1001.39 2455.86 1016.73 2471.18 1032.06 2478.2 1066.89 2489.37 1087.24 2500.54 1107.6 2519.74 1117.06 2522.89 1138.84 2526.04 1160.63 2516.44 1192.87 2508.28 1217.96 2500.11 1243.04 2493.24 1275.86 2473.91 1289.33 2454.57 1302.8 2414.76 1292.77 2392.27 1298.79 2369.79 1304.81 2355.03 1313.12 2338.99 1325.45 2322.95 1337.78 2315.5 1363.43 2296.03 1372.75 2276.55 1382.06 2239.31 1381.78 2222.13 1381.35 2204.94 1380.92 2204.22 1365.44 2192.91 1370.17 2181.6 1374.9 2175.15 1395.82 2154.24 1409.72 2133.33 1423.63 2084.21 1443.12 2067.45 1453.58 2050.69 1464.04 2062.72 1472.5 2053.7 1472.5 2044.68 1472.5 2010.31 1461.18 2013.31 1453.58 2016.32 1445.98 2052.7 1439.82 2071.75 1426.92 2090.79 1414.02 2116.29 1396.25 2127.6 1376.19 2138.92 1356.12 2143.21 1324.88 2139.63 1306.53 2136.05 1288.18 2125.88 1275.14 2106.12 1266.11 2086.35 1257.08 2046.83 1252.78 2021.05 1252.35 1995.27 1251.92 1970.2 1259.23 1951.44 1263.53 1932.68 1267.83 1921.22 1269.98 1908.48 1278.15 1895.73 1286.32 1880.69 1303.38 1874.96 1312.55 1869.23 1321.72 1881.26 1338.35 1873.24 1335.77Z" stroke="#172C51" stroke-width="4.58333" stroke-miterlimit="8" fill="#FF89A5" fill-rule="evenodd"/><path d="M1955 978C1972.03 996.696 1978.36 1013.58 1991.95 1034.83 2003.81 1054.18 2018.96 1090.03 2025.46 1108.03 2028.61 1126.47 2027.96 1143.19 2023.74 1152.81 2017.24 1161.76 2017.98 1160.41 1987.65 1164" stroke="#FFFFFF" stroke-width="10.3125" stroke-miterlimit="8" fill="none" fill-rule="evenodd"/><path d="M2012 1162C2014.7 1171.08 2021.18 1187.9 2030.86 1195.2 2040.51 1202.67 2062.72 1218.51 2073.71 1219.88 2084.91 1221.43 2097.31 1209.77 2102 1203.71 2107.88 1197.96 2107.68 1195.65 2108 1184.98" stroke="#FFFFFF" stroke-width="10.3125" stroke-miterlimit="8" fill="none" fill-rule="evenodd"/><path d="M2077 1088.48C2081.28 1061.95 2086.12 1034.9 2096.77 1019.75 2108.97 1000.94 2127.16 995.994 2138.89 993.121 2150.4 991.065 2157.23 993.455 2167.25 1004.29 2176 1015.74 2189.45 1046.06 2188.74 1068.72 2190 1091.52 2182.23 1111.45 2178.43 1128" stroke="#FFFFFF" stroke-width="10.3125" stroke-miterlimit="8" fill="none" fill-rule="evenodd"/><path d="M2067 934C2060.93 944.342 2057.06 953.008 2054.59 961.5 2053.79 970.632 2052.45 978.246 2057.9 989" stroke="#FFFFFF" stroke-width="10.3125" stroke-miterlimit="8" fill="none" fill-rule="evenodd"/><path d="M2176 1021C2186.44 1010.57 2198.06 997.992 2201.07 990.2 2203.83 978.452 2206 965.537 2201.91 958.544 2198.78 950.849 2192.99 946.123 2186.87 944" stroke="#FFFFFF" stroke-width="10.3125" stroke-miterlimit="8" fill="none" fill-rule="evenodd"/><path d="M2290 964C2286.87 970.447 2284.01 977.132 2282.52 987.029 2281.33 994.071 2281.64 1009.79 2284.19 1022" stroke="#FFFFFF" stroke-width="10.3125" stroke-miterlimit="8" fill="none" fill-rule="evenodd"/><path d="M2480 1088.33C2466.84 1088.29 2456.76 1087.16 2441.14 1088.33 2432.2 1089.22 2418.97 1097.12 2405.73 1102.18 2393.62 1110.87 2379.87 1123 2375.5 1135.06 2371.49 1149.96 2366.56 1159.42 2366 1174" stroke="#FFFFFF" stroke-width="10.3125" stroke-miterlimit="8" fill="none" fill-rule="evenodd"/><path d="M2504 1216.6C2496.04 1218.5 2485 1218.88 2474.66 1216.6 2462.54 1211.06 2450.58 1208.54 2441 1202" stroke="#FFFFFF" stroke-width="10.3125" stroke-miterlimit="8" fill="none" fill-rule="evenodd"/><path d="M2140 1353.06C2155.49 1354.59 2175.42 1360.73 2189.74 1359.03 2203.9 1355.84 2228.09 1345.82 2236.9 1335.13 2249.44 1325.58 2246.95 1311.07 2244.62 1295" stroke="#FFFFFF" stroke-width="10.3125" stroke-miterlimit="8" fill="none" fill-rule="evenodd"/><path d="M2242 1327C2274.85 1324.23 2307.27 1314.48 2324.55 1305.32 2344.26 1292.47 2355.92 1276.51 2360.67 1267.16 2363.94 1255.89 2346.97 1245.59 2341.75 1237.67 2336.45 1231.31 2328.85 1229 2328.85 1229" stroke="#FFFFFF" stroke-width="10.3125" stroke-miterlimit="8" fill="none" fill-rule="evenodd"/><path d="M1833 1151.11C1838.24 1141.87 1845.06 1133.29 1850.06 1131.35 1855.54 1128.44 1859.87 1126.48 1868.82 1130.49 1879.2 1130.24 1893.27 1138.73 1901.24 1156.27 1909.76 1170.93 1914.03 1225 1920 1220.71" stroke="#FFFFFF" stroke-width="10.3125" stroke-miterlimit="8" fill="none" fill-rule="evenodd"/><path d="M1865 1129C1869.64 1117.24 1868.78 1103.39 1874.52 1092.06 1882.29 1081.15 1901.16 1069.15 1910 1062" stroke="#FFFFFF" stroke-width="10.3125" stroke-miterlimit="8" fill="none" fill-rule="evenodd"/><path d="M2231.85 1060C2249.02 1065.54 2263.96 1070.33 2276.5 1084.92 2285.73 1093.09 2297.5 1118.08 2297.97 1138.19 2296.3 1158.61 2284.53 1182.26 2272.21 1200.91 2254.9 1221.71 2228.36 1243.56 2212.96 1244.73 2194.61 1246.75 2165.47 1228.55 2153.7 1217.23 2140.07 1205.48 2143.74 1189.11 2149.41 1172.55" stroke="#FFFFFF" stroke-width="10.3125" stroke-miterlimit="8" fill="none" fill-rule="evenodd"/><path d="M2298 1131C2315.83 1129.38 2327.25 1129.38 2334.47 1117.16 2342.7 1110.96 2346.97 1081.49 2343.8 1066.98 2342.87 1050.77 2330.31 1030.98 2328.54 1022" stroke="#FFFFFF" stroke-width="10.3125" stroke-miterlimit="8" fill="none" fill-rule="evenodd"/><path d="M1772.53 1182.76 1789.03 1153.7 1794.48 1147.63 1799.63 1142.52 1804.96 1137.82 1810.37 1133.57 1815.83 1129.82 1821.28 1126.6 1826.7 1123.97 1832.12 1121.98 1837.66 1120.77 1843.51 1120.63 1849.61 1122.21 1853.58 1125.03 1856.19 1128.34 1857.92 1131.61 1859.19 1134.93 1860.2 1138.38 1861.07 1142.11 1862.39 1149.91 1863.41 1158.59 1864.21 1167.81 1865.4 1186.64 1865.93 1195.76 1865.92 1195.68 1866.47 1204.18 1866.46 1203.98 1867.1 1211.56 1867.07 1211.29 1867.44 1214.64 1867.41 1214.36 1867.82 1217.36 1867.76 1216.96 1868.22 1219.56 1868.1 1218.97 1868.62 1221.14 1868.34 1220.19 1868.92 1221.9 1868.21 1220.27 1868.86 1221.46 1866.6 1218.65 1867.33 1219.29 1861.14 1216.77 1861.95 1216.82 1855.79 1218.44 1856.7 1217.86 1854.24 1220.08 1855.25 1218.82 1854.14 1220.5 1855.24 1218.4 1854.75 1219.48 1855.92 1216.42 1855.72 1217.02 1856.95 1213.07 1856.84 1213.44 1858.14 1208.68 1858.08 1208.92 1859.44 1203.42 1859.39 1203.59 1860.81 1197.41 1860.78 1197.53 1862.24 1190.74 1862.22 1190.83 1863.73 1183.5 1863.71 1183.57 1865.26 1175.78 1865.26 1175.82 1866.84 1167.63 1866.83 1167.68 1870.11 1150.37 1873.48 1132.32 1876.93 1113.99 1880.42 1095.98 1883.92 1078.85 1885.68 1070.73 1887.42 1063.05 1889.16 1055.83 1890.89 1049.13 1892.63 1043.02 1894.37 1037.51 1896.17 1032.61 1898.1 1028.25 1900.47 1024.21 1904.34 1020.01 1911.91 1017.11 1919.76 1020.44 1923.48 1025.59 1925.43 1030.34 1926.92 1035.48 1928.24 1041.38 1929.48 1048.13 1930.66 1055.71 1931.8 1064.07 1932.91 1073.16 1933.99 1082.91 1935.06 1093.22 1936.1 1104.03 1937.13 1115.27 1939.16 1138.61 1941.18 1162.66 1943.21 1186.71 1943.2 1186.67 1945.26 1210.08 1945.25 1210.02 1946.3 1221.27 1946.3 1221.22 1947.36 1232.06 1947.35 1231.99 1948.44 1242.33 1948.43 1242.24 1949.53 1252 1949.52 1251.88 1950.65 1260.97 1950.63 1260.83 1951.79 1269.16 1951.76 1268.97 1952.95 1276.47 1952.91 1276.2 1954.13 1282.78 1954.05 1282.39 1955.32 1287.97 1955.16 1287.37 1956.46 1291.86 1956.12 1290.86 1957.46 1294.17 1956.45 1292.28 1957.84 1294.34 1954.41 1291.15 1955.85 1291.98 1948.81 1290.8 1950.31 1290.52 1945.55 1292.8 1947.1 1291.48 1945.34 1293.42 1946.95 1291.12 1946.24 1292.29 1947.89 1289.09 1947.54 1289.83 1949.24 1285.79 1949.04 1286.28 1950.77 1281.48 1950.66 1281.82 1952.42 1276.32 1952.34 1276.58 1954.13 1270.45 1954.08 1270.64 1955.89 1263.96 1955.85 1264.1 1957.69 1256.93 1957.66 1257.04 1959.51 1249.45 1959.48 1249.57 1963.22 1233.41 1963.2 1233.51 1966.95 1216.5 1966.94 1216.54 1970.67 1199.24 1974.36 1182.17 1977.98 1165.88 1979.75 1158.16 1981.5 1150.84 1983.22 1143.97 1984.91 1137.61 1986.58 1131.8 1988.23 1126.58 1989.91 1121.95 1991.7 1117.84 1993.91 1113.97 1997.63 1109.87 2004.81 1107.12 2012.16 1109.89 2015.77 1114.25 2017.57 1118.05 2018.78 1121.79 2019.76 1125.79 2020.6 1130.17 2021.35 1134.95 2022.04 1140.11 2022.69 1145.63 2023.87 1157.43 2024.97 1170.01 2026.05 1182.89 2026.05 1182.84 2027.18 1195.57 2027.17 1195.44 2028.39 1207.54 2028.38 1207.37 2029.05 1213.03 2029.02 1212.86 2029.74 1218.18 2029.71 1217.96 2030.48 1222.87 2030.43 1222.57 2031.26 1227.02 2031.17 1226.61 2032.07 1230.52 2031.91 1229.93 2032.89 1233.26 2032.58 1232.37 2033.63 1235.04 2032.95 1233.63 2034.09 1235.59 2032.31 1233.33 2033.54 1234.51 2028.99 1231.98 2030.33 1232.32 2024.07 1232.68 2025.52 1232.12 2022.03 1234.34 2023.6 1232.83 2022.1 1234.66 2023.78 1232.04 2023.14 1233.19 2024.93 1229.42 2024.65 1230.09 2026.54 1225.25 2026.38 1225.67 2028.37 1219.85 2028.28 1220.14 2030.36 1213.41 2030.3 1213.61 2032.46 1206.06 2032.42 1206.21 2034.66 1197.91 2034.64 1198.02 2036.95 1189.06 2036.93 1189.14 2039.31 1179.6 2039.29 1179.66 2041.73 1169.62 2041.72 1169.66 2044.21 1159.2 2046.74 1148.44 2051.92 1126.18 2057.23 1103.5 2062.61 1081.07 2065.32 1070.13 2068.02 1059.49 2070.72 1049.24 2073.42 1039.43 2076.1 1030.16 2078.77 1021.48 2081.43 1013.46 2084.08 1006.17 2086.76 999.633 2089.51 993.866 2092.46 988.81 2096.01 984.307 2101.16 980.33 2108.85 978.768 2115.9 981.828 2120.2 986.424 2123.14 991.365 2125.58 996.88 2127.8 1003.14 2129.91 1010.18 2131.95 1018.01 2133.93 1026.56 2135.89 1035.79 2137.81 1045.62 2139.71 1055.98 2141.58 1066.79 2143.44 1077.98 2145.27 1089.47 2148.9 1112.97 2152.47 1136.7 2155.99 1159.98 2155.99 1159.94 2157.74 1171.22 2157.73 1171.17 2159.47 1182.1 2159.46 1182.04 2161.2 1192.52 2161.19 1192.44 2162.92 1202.41 2162.9 1202.3 2164.63 1211.67 2164.6 1211.53 2166.33 1220.2 2166.29 1220.02 2168.01 1227.92 2167.96 1227.67 2169.68 1234.73 2169.59 1234.38 2171.31 1240.5 2171.15 1239.99 2172.88 1245.09 2172.58 1244.3 2174.3 1248.3 2173.62 1246.99 2175.35 1249.8 2173.83 1247.89 2175.57 1249.61 2172.68 1247.59 2174.42 1248.4 2169.81 1247.43 2171.55 1247.39 2167.3 1248.41 2169.03 1247.58 2166.56 1249.24 2168.3 1247.66 2167.05 1249.03 2168.78 1246.76 2168.11 1247.74 2169.84 1244.83 2169.46 1245.53 2171.19 1242.05 2170.95 1242.56 2172.68 1238.55 2172.52 1238.93 2174.24 1234.44 2174.13 1234.73 2175.84 1229.83 2175.77 1230.05 2177.47 1224.78 2177.4 1225.02 2180.78 1213.62 2180.72 1213.82 2184.06 1201.61 2184.04 1201.72 2187.34 1189.14 2190.59 1176.62 2193.81 1164.5 2196.99 1153.24 2198.58 1147.99 2200.18 1143.1 2201.79 1138.58 2203.45 1134.43 2205.2 1130.65 2207.19 1127.15 2209.76 1123.78 2213.49 1120.72 2218.46 1118.97 2223.7 1119.22 2228.06 1121.13 2231.16 1123.69 2233.41 1126.4 2235.28 1129.33 2238.07 1135.1 2240.56 1141.75 2242.85 1148.99 2245.02 1156.65 2247.11 1164.48 2249.19 1172.3 2249.16 1172.21 2251.23 1179.75 2251.17 1179.52 2253.26 1186.53 2253.13 1186.12 2255.27 1192.3 2254.99 1191.58 2257.18 1196.67 2256.74 1195.77 2257.87 1197.81 2257.32 1196.93 2258.47 1198.59 2257.49 1197.37 2258.66 1198.62 2256.83 1197.08 2258.02 1197.87 2254.81 1196.46 2256.03 1196.77 2251.77 1196.63 2253.03 1196.4 2249.12 1197.98 2250.39 1197.13 2248.2 1199.09 2249.47 1197.57 2248.51 1198.93 2249.78 1196.8 2249.31 1197.69 2250.57 1194.99 2250.31 1195.59 2251.58 1192.38 2251.42 1192.8 2252.69 1189.13 2252.59 1189.43 2253.86 1185.34 2253.8 1185.56 2255.07 1181.11 2255.01 1181.33 2257.58 1171.53 2257.53 1171.7 2260.13 1161.04 2260.12 1161.09 2262.77 1149.96 2265.48 1138.71 2268.28 1127.7 2271.18 1117.36 2272.71 1112.46 2274.28 1107.86 2275.92 1103.56 2277.66 1099.56 2279.58 1095.85 2281.79 1092.39 2284.59 1089.14 2288.51 1086.2 2294 1084.46 2300.02 1085.23 2304.82 1088.03 2308.3 1091.69 2310.98 1096 2313.26 1100.92 2315.36 1106.54 2317.41 1112.93 2319.45 1120.08 2321.5 1127.96 2323.57 1136.52 2325.66 1145.69 2327.77 1155.39 2329.9 1165.56 2332.05 1176.12 2334.22 1186.99 2338.6 1209.35 2343.04 1232.06 2343.03 1232.02 2347.5 1254.45 2347.49 1254.39 2349.73 1265.31 2349.72 1265.25 2351.96 1275.85 2351.95 1275.78 2354.19 1286 2354.17 1285.9 2356.41 1295.66 2356.38 1295.54 2358.61 1304.75 2358.57 1304.59 2360.8 1313.18 2360.74 1312.98 2362.95 1320.86 2362.88 1320.6 2365.08 1327.7 2364.96 1327.35 2367.14 1333.59 2366.96 1333.09 2369.12 1338.39 2368.79 1337.67 2370.94 1341.95 2370.3 1340.85 2372.42 1344.03 2370.96 1342.3 2373.06 1344.3 2369.42 1342.05 2371.49 1342.79 2365.31 1342.54 2367.37 1341.99 2363.28 1344.16 2365.33 1342.38 2363.64 1344.26 2365.69 1341.32 2364.96 1342.54 2367.01 1338.52 2366.65 1339.31 2368.7 1334.3 2368.49 1334.84 2370.54 1328.9 2370.42 1329.29 2372.46 1322.5 2372.38 1322.78 2374.42 1315.23 2374.36 1315.44 2376.4 1307.19 2376.36 1307.36 2378.39 1298.48 2378.36 1298.61 2380.39 1289.2 2380.37 1289.3 2382.39 1279.42 2382.37 1279.5 2384.39 1269.23 2384.38 1269.29 2386.39 1258.71 2386.38 1258.77 2390.39 1236.97 2390.38 1237.01 2394.37 1214.87 2398.33 1192.97 2402.26 1171.92 2404.22 1161.87 2406.18 1152.26 2408.13 1143.16 2410.08 1134.62 2412.04 1126.7 2414.01 1119.48 2416.01 1112.97 2418.08 1107.2 2420.32 1102.12 2422.89 1097.72 2425.95 1094.04 2429.74 1091.01 2434.52 1089.01 2439.79 1088.68 2444.59 1089.99 2448.44 1092.23 2451.53 1094.92 2454.13 1097.89 2456.45 1101.09 2458.65 1104.63 2462.57 1112.08 2466.34 1120.44 2469.96 1129.34 2476.85 1147.44 2480.16 1156.09 2480.08 1155.91 2483.31 1163.9 2483.15 1163.52 2486.29 1170.49 2486.07 1170.02 2487.6 1173.01 2487.35 1172.54 2488.86 1175.14 2488.45 1174.5 2489.93 1176.67 2489.25 1175.78 2490.7 1177.47 2489.44 1176.24 2490.87 1177.41 2488.47 1175.93 2489.86 1176.55 2485.89 1175.67 2488.97 1175.73 2486.01 1176.1 2489.68 1175.08 2488.03 1175.69 2492.2 1173.72 2491.22 1174.25 2495.78 1171.46 2495.16 1171.87 2500.02 1168.39 2499.59 1168.71 2504.65 1164.67 2504.33 1164.93 2509.5 1160.45 2509.25 1160.67 2514.43 1155.89 2514.15 1156.16 2524.13 1146.21 2523.56 1146.83 2543.65 1123.27 2559.35 1136.65 2538.98 1160.53 2528.56 1170.91 2523.13 1175.93 2517.69 1180.65 2512.26 1184.99 2506.88 1188.85 2501.53 1192.13 2496.06 1194.71 2490.08 1196.38 2483.42 1196.25 2478.82 1194.22 2475.62 1191.56 2473.22 1188.77 2471.2 1185.82 2469.37 1182.66 2467.6 1179.2 2464.27 1171.82 2460.92 1163.55 2457.57 1154.77 2450.73 1136.79 2450.82 1137.01 2447.31 1128.39 2447.45 1128.74 2443.9 1120.83 2444.17 1121.4 2440.57 1114.56 2440.94 1115.2 2439.13 1112.29 2439.53 1112.88 2437.71 1110.37 2438.32 1111.13 2436.49 1109.05 2437.46 1110.02 2435.63 1108.42 2437.21 1109.56 2435.38 1108.49 2437.87 1109.53 2436.03 1109.03 2439.37 1109.37 2437.53 1109.49 2440.88 1108.71 2439.03 1109.48 2441.49 1108.02 2439.65 1109.49 2441.14 1108.03 2439.3 1110.24 2440.27 1108.86 2438.43 1112.01 2438.96 1110.97 2437.1 1115.19 2437.37 1114.52 2435.5 1119.72 2435.65 1119.27 2433.77 1125.39 2433.86 1125.06 2431.97 1132.01 2432.03 1131.78 2430.12 1139.48 2430.17 1139.3 2428.25 1147.68 2428.28 1147.55 2426.35 1156.54 2426.38 1156.43 2424.44 1165.95 2424.45 1165.87 2422.51 1175.83 2422.52 1175.75 2418.6 1196.73 2418.62 1196.67 2414.67 1218.52 2410.68 1240.68 2406.66 1262.53 2404.64 1273.18 2402.6 1283.52 2400.56 1293.49 2398.51 1303.02 2396.44 1312.05 2394.36 1320.49 2392.25 1328.3 2390.11 1335.42 2387.9 1341.83 2385.58 1347.51 2383.01 1352.55 2379.83 1357.11 2375.02 1361.28 2367.55 1363.3 2360.39 1360.72 2355.89 1356.42 2352.78 1351.76 2350.18 1346.56 2347.76 1340.65 2345.43 1333.98 2343.13 1326.57 2340.85 1318.45 2338.58 1309.68 2336.32 1300.33 2334.05 1290.47 2331.79 1280.16 2329.54 1269.49 2327.28 1258.51 2322.8 1236.04 2318.36 1213.32 2313.98 1190.98 2313.99 1191.01 2311.83 1180.17 2311.84 1180.21 2309.69 1169.71 2309.71 1169.76 2307.59 1159.66 2307.6 1159.74 2305.51 1150.12 2305.54 1150.22 2303.47 1141.17 2303.5 1141.3 2301.47 1132.9 2301.52 1133.07 2299.52 1125.39 2299.58 1125.62 2297.62 1118.75 2297.72 1119.07 2295.79 1113.08 2295.95 1113.54 2294.07 1108.51 2294.37 1109.21 2292.53 1105.22 2293.15 1106.37 2291.36 1103.5 2292.62 1105.14 2290.87 1103.3 2293.14 1105.1 2291.43 1104.09 2295.33 1105.42 2293.65 1105.21 2298.07 1104.81 2296.42 1105.33 2299.48 1103.76 2297.86 1104.97 2299.5 1103.44 2297.9 1105.29 2298.77 1104.13 2297.2 1106.57 2297.68 1105.74 2296.15 1108.72 2296.43 1108.11 2294.92 1111.58 2295.11 1111.13 2293.62 1115.03 2293.74 1114.69 2292.27 1118.99 2292.36 1118.73 2290.92 1123.36 2291 1123.07 2288.17 1133.15 2288.24 1132.91 2285.48 1143.73 2285.51 1143.61 2282.82 1154.78 2282.83 1154.75 2280.18 1165.89 2277.55 1176.67 2274.93 1186.67 2273.59 1191.35 2272.24 1195.7 2270.85 1199.74 2269.38 1203.46 2267.76 1206.91 2265.81 1210.18 2263.06 1213.47 2258.76 1216.33 2253.24 1217.32 2248.17 1216.07 2244.48 1213.64 2241.95 1210.96 2240.06 1208.23 2238.44 1205.3 2235.9 1199.4 2233.56 1192.64 2231.38 1185.32 2229.26 1177.63 2227.19 1169.82 2225.11 1162.06 2225.15 1162.21 2223.04 1154.77 2223.13 1155.06 2220.97 1148.22 2221.15 1148.73 2218.92 1142.77 2219.29 1143.64 2216.98 1138.86 2217.58 1139.93 2216.38 1138.06 2217.14 1139.1 2215.92 1137.63 2217.28 1138.98 2216.03 1137.95 2218.44 1139.44 2217.15 1138.87 2220.82 1139.73 2219.5 1139.67 2223.4 1139.1 2222.05 1139.57 2225.16 1137.83 2223.77 1138.96 2225.44 1137.23 2224.03 1139.09 2224.78 1137.94 2223.35 1140.47 2223.73 1139.72 2222.27 1142.86 2222.5 1142.35 2221.02 1146.05 2221.15 1145.69 2219.65 1149.89 2219.74 1149.63 2218.22 1154.29 2218.29 1154.09 2216.75 1159.15 2216.81 1158.94 2213.68 1170.03 2213.72 1169.87 2210.53 1181.89 2210.54 1181.83 2207.29 1194.37 2203.97 1207.01 2200.58 1219.38 2197.13 1231.01 2195.35 1236.51 2193.56 1241.67 2191.71 1246.49 2189.8 1250.95 2187.77 1255.04 2185.53 1258.8 2182.88 1262.28 2179.34 1265.5 2174.24 1267.96 2167.85 1268.1 2162.3 1265.5 2158.43 1261.66 2155.67 1257.16 2153.48 1252.1 2151.53 1246.35 2149.69 1239.8 2147.89 1232.44 2146.12 1224.32 2144.36 1215.48 2142.61 1205.99 2140.86 1195.94 2139.11 1185.38 2137.36 1174.4 2135.6 1163.08 2132.07 1139.77 2128.5 1116.06 2128.51 1116.1 2124.89 1092.64 2124.9 1092.69 2123.08 1081.26 2123.08 1081.32 2121.24 1070.2 2121.25 1070.28 2119.39 1059.55 2119.41 1059.64 2117.53 1049.39 2117.56 1049.52 2115.66 1039.82 2115.69 1039.98 2113.78 1030.93 2113.82 1031.13 2111.89 1022.81 2111.95 1023.07 2110 1015.56 2110.09 1015.91 2108.11 1009.29 2108.28 1009.79 2106.27 1004.14 2106.56 1004.86 2104.53 1000.27 2105.1 1001.38 2103.05 997.936 2104.38 999.704 2102.3 997.482 2105.72 999.895 2103.62 998.979 2109.77 999.627 2107.61 1000.07 2111.86 998.122 2109.62 999.852 2111.43 998.065 2109.11 1001 2109.91 999.832 2107.53 1003.9 2107.94 1003.13 2105.5 1008.24 2105.74 1007.72 2103.25 1013.8 2103.39 1013.42 2100.86 1020.38 2100.96 1020.1 2098.38 1027.86 2098.45 1027.65 2095.84 1036.14 2095.89 1035.97 2093.25 1045.09 2093.29 1044.96 2090.63 1054.65 2090.65 1054.54 2087.98 1064.71 2088 1064.62 2085.31 1075.18 2085.33 1075.11 2082.64 1085.99 2082.66 1085.91 2077.3 1108.28 2077.31 1108.22 2072.01 1130.86 2066.82 1153.15 2064.27 1163.98 2061.78 1174.46 2059.33 1184.56 2056.93 1194.17 2054.59 1203.23 2052.31 1211.66 2050.1 1219.39 2047.94 1226.37 2045.83 1232.56 2043.72 1237.95 2041.49 1242.64 2038.8 1246.82 2034.86 1250.63 2028.37 1253.11 2021.24 1251.28 2017 1247.23 2014.73 1243.33 2013.22 1239.49 2012.03 1235.42 2011.02 1231.01 2010.12 1226.21 2009.31 1221.04 2008.57 1215.53 2007.88 1209.71 2006.64 1197.46 2005.5 1184.64 2004.42 1171.76 2004.42 1171.79 2003.33 1159.29 2003.34 1159.41 2002.17 1147.76 2002.19 1147.94 2001.57 1142.59 2001.59 1142.76 2000.92 1137.81 2000.96 1138.05 2000.25 1133.56 2000.31 1133.89 1999.55 1129.93 1999.65 1130.41 1998.83 1127.03 1999.05 1127.78 1998.16 1125.04 1998.65 1126.28 1997.69 1124.25 1999.06 1126.41 1998.02 1125.15 2002.33 1128.23 2001.2 1127.8 2008.52 1127.78 2007.3 1128.25 2011.25 1125.55 2009.94 1126.99 2011.26 1125.18 2009.89 1127.58 2010.39 1126.58 2008.95 1129.88 2009.19 1129.28 2007.7 1133.41 2007.83 1133.01 2006.28 1137.9 2006.36 1137.63 2004.76 1143.2 2004.82 1143 2003.17 1149.2 2003.21 1149.05 2001.52 1155.8 2001.55 1155.69 1999.83 1162.91 1999.84 1162.83 1998.09 1170.46 1998.1 1170.38 1994.51 1186.61 1994.52 1186.56 1990.83 1203.59 1987.1 1220.92 1983.33 1238 1979.57 1254.28 1977.68 1261.99 1975.82 1269.29 1973.96 1276.14 1972.1 1282.49 1970.24 1288.29 1968.36 1293.51 1966.41 1298.17 1964.26 1302.35 1961.5 1306.3 1956.86 1310.27 1948.93 1311.78 1942.09 1307.87 1938.75 1302.93 1936.8 1298.12 1935.27 1292.82 1933.89 1286.75 1932.61 1279.84 1931.38 1272.1 1930.19 1263.59 1929.05 1254.38 1927.93 1244.52 1926.84 1234.11 1925.77 1223.21 1924.72 1211.91 1922.66 1188.46 1920.63 1164.39 1918.62 1140.4 1916.59 1117.08 1916.59 1117.13 1915.56 1105.95 1915.57 1105.99 1914.53 1095.24 1914.54 1095.3 1913.48 1085.06 1913.49 1085.14 1912.42 1075.5 1912.43 1075.61 1911.34 1066.64 1911.35 1066.79 1910.24 1058.59 1910.27 1058.78 1909.12 1051.44 1909.17 1051.71 1907.99 1045.29 1908.07 1045.69 1906.86 1040.29 1907.02 1040.91 1905.78 1036.62 1906.15 1037.68 1904.87 1034.58 1906.04 1036.68 1904.72 1034.84 1909.05 1038.3 1907.68 1037.72 1915.39 1037.86 1913.97 1038.41 1917.88 1035.75 1916.4 1037.36 1917.71 1035.59 1916.19 1038.18 1916.72 1037.16 1915.16 1040.67 1915.42 1040.03 1913.82 1044.39 1913.97 1043.96 1912.34 1049.1 1912.43 1048.79 1910.77 1054.64 1910.83 1054.42 1909.15 1060.91 1909.19 1060.74 1907.49 1067.81 1907.52 1067.68 1905.8 1075.25 1905.82 1075.14 1904.09 1083.15 1904.12 1083.03 1900.64 1100.06 1900.66 1099.96 1897.18 1117.89 1897.19 1117.84 1893.75 1136.1 1890.37 1154.2 1887.1 1171.53 1885.5 1179.77 1883.94 1187.63 1882.41 1195.03 1880.93 1201.93 1879.48 1208.27 1878.07 1213.98 1876.69 1219.05 1875.3 1223.48 1873.81 1227.4 1871.97 1230.93 1869.28 1234.29 1864.14 1237.6 1856.45 1237.16 1851.67 1233 1849.7 1229.43 1848.67 1226.42 1847.97 1223.47 1847.42 1220.37 1846.96 1217.04 1846.56 1213.43 1845.9 1205.62 1845.34 1196.99 1844.81 1187.86 1844.81 1187.92 1843.63 1169.23 1843.65 1169.47 1842.87 1160.52 1842.9 1160.84 1841.93 1152.58 1842.01 1153.1 1840.78 1145.86 1840.9 1146.46 1840.18 1143.32 1840.33 1143.9 1839.52 1141.13 1839.78 1141.92 1838.88 1139.57 1839.39 1140.69 1838.39 1138.8 1839.42 1140.38 1838.31 1138.97 1840.43 1140.99 1839.21 1140.13 1842.61 1141.7 1839.74 1140.96 1842.57 1141.29 1839.15 1141.37 1841.1 1141.14 1837.2 1141.98 1838.54 1141.6 1834.27 1143.16 1835.24 1142.75 1830.67 1144.97 1831.41 1144.57 1826.63 1147.39 1827.23 1147.01 1822.33 1150.38 1822.85 1150 1817.92 1153.87 1818.38 1153.48 1813.51 1157.78 1813.94 1157.38 1809.21 1162.07 1809.63 1161.63 1805.13 1166.64 1806.42 1164.85 1790.47 1192.94ZM1808.51 1202.94C1800.17 1217.86 1781.32 1223.19 1766.41 1214.85 1751.49 1206.52 1746.16 1187.67 1754.49 1172.75 1762.83 1157.84 1781.68 1152.51 1796.59 1160.84 1811.51 1169.18 1816.84 1188.03 1808.51 1202.94ZM2527.96 1109.89C2539.05 1096.88 2558.57 1095.33 2571.57 1106.42 2584.58 1117.51 2586.13 1137.03 2575.04 1150.03 2563.95 1163.03 2544.43 1164.59 2531.43 1153.5 2518.43 1142.41 2516.87 1122.89 2527.96 1109.89Z" fill="#002060"/></g></svg>